<svg xmlns="http://www.w3.org/2000/svg" xmlns:xlink="http://www.w3.org/1999/xlink" viewBox="0 0 274.23 274.23"><defs><style>.cls-1{fill:#189cd9;stroke:#fff;stroke-miterlimit:10;stroke-width:3.23px;}.cls-2{fill:#252636;}.cls-3{fill:#efb894;}.cls-4{fill:#d4826c;}.cls-5{fill:#15161f;}.cls-6{fill:#d8e1eb;}.cls-7{fill:#97a8bd;}.cls-8{fill:#fff;}.cls-9{fill:url(#Áåçûìÿííûé_ãðàäèåíò_6);}.cls-10{fill:url(#Áåçûìÿííûé_ãðàäèåíò_6-2);}.cls-11{fill:url(#Áåçûìÿííûé_ãðàäèåíò_6-3);}.cls-12{fill:url(#Áåçûìÿííûé_ãðàäèåíò_6-4);}.cls-13{fill:url(#Áåçûìÿííûé_ãðàäèåíò_6-5);}.cls-14{fill:#8a5954;}.cls-15{fill:#543633;}.cls-16{fill:#231f20;}.cls-17{fill:#efa588;}.cls-18{fill:#a1635c;}.cls-19{fill:#b36d5b;}.cls-20{fill:#b0232c;}.cls-21{fill:#f33;}.cls-22{fill:#ef9388;}.cls-23{fill:#0b0b0f;}.cls-24{fill:#f1f2f2;}</style><linearGradient id="Áåçûìÿííûé_ãðàäèåíò_6" x1="138.08" y1="293.57" x2="143.36" y2="231.72" gradientUnits="userSpaceOnUse"><stop offset="0" stop-color="#252636"/><stop offset="1" stop-color="#15161f"/></linearGradient><linearGradient id="Áåçûìÿííûé_ãðàäèåíò_6-2" x1="165.76" y1="295.93" x2="171.04" y2="234.08" xlink:href="#Áåçûìÿííûé_ãðàäèåíò_6"/><linearGradient id="Áåçûìÿííûé_ãðàäèåíò_6-3" x1="118.68" y1="291.91" x2="123.96" y2="230.06" xlink:href="#Áåçûìÿííûé_ãðàäèåíò_6"/><linearGradient id="Áåçûìÿííûé_ãðàäèåíò_6-4" x1="158.46" y1="295.31" x2="163.74" y2="233.46" xlink:href="#Áåçûìÿííûé_ãðàäèåíò_6"/><linearGradient id="Áåçûìÿííûé_ãðàäèåíò_6-5" x1="112.75" y1="291.41" x2="118.03" y2="229.56" xlink:href="#Áåçûìÿííûé_ãðàäèåíò_6"/></defs><title>Chaser_v1_1</title><g id="Layer_2" data-name="Layer 2"><g id="Layer_1-2" data-name="Layer 1"><circle class="cls-1" cx="137.11" cy="137.11" r="135.5"/><path class="cls-2" d="M167.61,169.75s26,35,66,37.86c15.85-20.12,8.31-71,2.27-93l-9.82-6.74s1,22.22-9.91,43.35c-3.3-5.28-19.23-24.72-19.23-24.72Z"/><polygon class="cls-3" points="225.79 100 226.07 107.9 235.89 114.64 237.96 106.15 225.79 100"/><path class="cls-3" d="M236,66.45s-11.44,12.76-11.44,13.92,1,20.38,1.31,20.94,9.57,6.34,10.8,6.82,13.58,2.45,14.49,1.5,4.73-26.56,3.68-28.66-13.31-1.32-13.31-1.32c.55,0-3.72-2.73.65-6.63,6.9-6.18,5-21.14-5.42-19.24C235.6,53.89,237.62,59.88,236,66.45Z"/><path class="cls-3" d="M246.91,109.75c4.65.92,12.09-1.2,8.86-6.86,0,0,5.49-2.25,3-7.35,1.85-.74,3.92-5,.86-8.28,3.83-1.13,1.14-7.26-1.3-9.29s-11.74-.2-13.65.33-5.22,2.27-4.66,5.08S246.91,109.75,246.91,109.75Z"/><path class="cls-4" d="M257.12,94.91a11.22,11.22,0,0,0-4.71-2.11c-3.24-.48-8.87,1.13-10.06,1.73l-.16.08-.16-.09c-1.53-.87-2.22-2.35-2.1-4.53.18-3.27,2.82-5,9.1-6,5.4-.82,6.95-.76,9.79,1.75l-.44.5c-2.65-2.34-4-2.39-9.24-1.59-5.91.9-8.38,2.45-8.54,5.34-.13,2.38.82,3.33,1.62,3.82,1.55-.69,7-2.19,10.29-1.71a11.59,11.59,0,0,1,5,2.25Z"/><path class="cls-4" d="M241.22,87.24s-3.41-3.53.41-7.81l.5.44c-3.4,3.83-.56,6.78-.44,6.9Z"/><path class="cls-4" d="M254.61,102.27c-3.43-3.35-11.46-2.13-12.91-1.15l-.22.15-.2-.18A4.76,4.76,0,0,1,240,96.18a3,3,0,0,1,2.12-2.28l.11.66a2.38,2.38,0,0,0-1.59,1.81,4.18,4.18,0,0,0,.9,4.06c2.16-1.12,10-2.06,13.52,1.36Z"/><path class="cls-4" d="M249.77,107.6c-.29,0-7.07-.87-8.39-1.32a2.63,2.63,0,0,1-1.53-2.65c0-1.25.51-2.72,1.54-3.1l.23.63c-.63.23-1.11,1.31-1.1,2.46a2,2,0,0,0,1.08,2c1.25.42,8.18,1.28,8.25,1.29Z"/><path class="cls-5" d="M217.6,148.3c-2.47,8.47-6.44,21.56-1.53,29.93C205.35,170.94,210.7,161.79,217.6,148.3Z"/><path class="cls-5" d="M183.89,186.2c5.67-11,12.55-30.21,11.21-49.17.67,26.33,2.55,53.59,8.64,62.16C193.54,194.82,183.89,186.2,183.89,186.2Z"/><path class="cls-6" d="M226.07,107.9s10.31,4.72,10.3,4.77S237,119,237,119l-11.2-3.15Z"/><path class="cls-6" d="M48.22,230.42a60.43,60.43,0,0,1-6.51-7.78A46.18,46.18,0,0,0,48.22,230.42Z"/><path class="cls-6" d="M113.89,253.61l.1-.11a35.51,35.51,0,0,1-4.84-3c-3.77,1-7.71,5.39-7.71,5.39-1-.22-2.07-.46-3.11-.71,3.36,1,6.89,2,10.63,3.08l4.43-4.73Z"/><path class="cls-6" d="M156.62,127.11h0a8.77,8.77,0,0,1-1.43,3.39l4.42,11.07,4.62,50.22c5.14-24.94,7-46.62,5-65.78a13.86,13.86,0,0,1-.8,5.17c-.75-.94-1.68-2.21-2.72-3.59C161.7,123.21,158.14,123.51,156.62,127.11Z"/><path class="cls-6" d="M156.07,103.34l-.28-.14.05,4.59A24.64,24.64,0,0,0,156.07,103.34Z"/><path class="cls-6" d="M149.68,131.66l-.42.06a8.33,8.33,0,0,1-2.52-1.83l-.06,0c-4.69-4-8.52.41-12.45,7-4.31-1-10.82-4.94-16.86-9.57,10.6,15.43,21.8,38.59,30,58.34l-.57-43.88Z"/><path class="cls-6" d="M103,113c-7.83,5.66-16.35,12.2-24.54,19.24L103,113.1Z"/><path class="cls-6" d="M159.14,251.44l5.43,1.91L160.07,241l-3.51,9.71,2.49,1Z"/><path class="cls-6" d="M119.78,195.9c-1.25-.62-4.12-2.12-7.14-3.69C115,193.49,117.33,194.72,119.78,195.9Z"/><path class="cls-7" d="M116.51,233c0,.17,0,.34.07.51l.14-.3Z"/><path class="cls-7" d="M157.51,252.55l.1-.29,1.11.39.33-.94-2.49-1L156.1,252Z"/><path class="cls-8" d="M156.09,260.11l.59-1.66-1.11-.39.1-.29-1.45-.55-1.67,4.63s-6.71-1.22-15.1-3.67l.77.92,8,3.28c-2.93,2.57-7.42,4.1-15.17-1.84A105.21,105.21,0,0,1,116.28,271a137.55,137.55,0,0,0,20.83,1.59c.5,0,1,0,1.47,0l-3.25-3,4.11,2.95a135.28,135.28,0,0,0,22.84-2.31l2.13-7.2Z"/><path class="cls-9" d="M156.09,260.11l.59-1.66-1.11-.39.1-.29-1.45-.55-1.67,4.63s-6.71-1.22-15.1-3.67l.77.92,8,3.28c-2.93,2.57-7.42,4.1-15.17-1.84A105.21,105.21,0,0,1,116.28,271a137.55,137.55,0,0,0,20.83,1.59c.5,0,1,0,1.47,0l-3.25-3,4.11,2.95a135.28,135.28,0,0,0,22.84-2.31l2.13-7.2Z"/><path class="cls-8" d="M168.64,264.53,167,264l-1.93,5.76c2-.42,4-.87,6-1.38l-1.05-.07Z"/><path class="cls-10" d="M168.64,264.53,167,264l-1.93,5.76c2-.42,4-.87,6-1.38l-1.05-.07Z"/><path class="cls-8" d="M117.76,254.48l2.13.48,6.12-.65c-2.56-1-5.08-2.13-7.45-3.35Z"/><path class="cls-11" d="M117.76,254.48l2.13.48,6.12-.65c-2.56-1-5.08-2.13-7.45-3.35Z"/><polygon class="cls-8" points="158.82 258.96 158.78 259.07 164.16 260.97 158.82 258.96"/><polygon class="cls-12" points="158.82 258.96 158.78 259.07 164.16 260.97 158.82 258.96"/><path class="cls-8" d="M114.55,268.58l-.47,2,.88.16C114.82,270.07,114.68,269.33,114.55,268.58Z"/><path class="cls-13" d="M114.55,268.58l-.47,2,.88.16C114.82,270.07,114.68,269.33,114.55,268.58Z"/><path class="cls-5" d="M164.41,263l-2.13,7.2c.93-.17,1.86-.33,2.79-.53L167,264Z"/><path class="cls-5" d="M138.58,272.58l.86,0-4.11-2.95Z"/><path class="cls-3" d="M114.12,105.21c4-2.75,7.64-5.12,10.61-7a11.44,11.44,0,0,1-5.75-6.6c-1.27-3.68-4.41-14.82-7.58-26.4a8,8,0,0,1-1.55-.5l.4,36.12A25.88,25.88,0,0,0,114.12,105.21Z"/><path class="cls-3" d="M148.62,53.79a6.8,6.8,0,0,1-5.18-2.62,28.94,28.94,0,0,0,5.76,7.07l.49.45-.42.52a5.21,5.21,0,0,1-2,1.45c2.53-.15,5.68-.35,8.07-.52l-.08-6.26-1.73-2.38A5.74,5.74,0,0,1,148.62,53.79Z"/><path class="cls-3" d="M112.25,31.58l.1,0-1,5.25,3.27,3.71-1.2,6.5c.17.58.35,1.16.52,1.73l5.09-1.08.29,1.41-4.95,1c1.71,5.63,3.25,10.72,3.77,12.54,1,3.37,3.43,3.54,7.36,2.72a10.1,10.1,0,0,1-3.27-7.65l16.57,2.47c-.29-.12-.58-.23-.88-.37l.62-1.29c4.15,2,7.58,1.37,9.11.17-4.87-4.73-7-8.58-7.33-13.22l-2.81.16a9,9,0,0,1-9.2,10c-6.88.07-9-4.39-9.25-9l-1,.05-.12-2.15,34.6-1.91.2-1.44-.15-.45-9.49.64.26-5,7.77.09-3.34-9.7C137.24,20.76,118.56,25.35,112.25,31.58Zm8.58,8.84.27-4,11.76-1.68,1.77,5.06Z"/><path class="cls-3" d="M155.79,103.2l-.06-4.92a26,26,0,0,1-6.51,1.76C151.28,101,153.48,102.07,155.79,103.2Z"/><path class="cls-3" d="M145.39,100.45c-8.54.57-15.78.29-20.66-2.27-3,1.91-6.58,4.28-10.61,7,9,8.32,24.13,12.43,30.95,13.32,2.12-.42,6.7-1.59,6.7-1.59,1.57-1.2,3.4-4.6,4.07-9.15l-.05-4.59c-2.31-1.13-4.51-2.18-6.57-3.16C148,100.22,146.77,100.36,145.39,100.45Z"/><path class="cls-8" d="M151.63,48.93l1.86,2.57c1-1.46,1.51-3.67,1.22-6.74l-2.5.14Z"/><path class="cls-8" d="M152.21,44.9l-10.44.58a13.63,13.63,0,0,0,1.67,5.69,6.8,6.8,0,0,0,5.18,2.62,5.74,5.74,0,0,0,4.87-2.29l-1.86-2.57Zm-3.86,7.17c-1.35,0-2.46-.65-2.47-1.51l4.89-.1C150.79,51.32,149.71,52,148.35,52.07Zm1.08-2.24c-1,0-1.88,0-1.9-1a1.64,1.64,0,0,1,.09-.5,5.84,5.84,0,0,1-.59.2,7.62,7.62,0,0,1-2,.27,4.54,4.54,0,0,1-.95-.11,5.16,5.16,0,0,1,.84-.59,8.35,8.35,0,0,1,1.93-.78,7.34,7.34,0,0,1,2-.27,3.85,3.85,0,0,1,.95.11l0,0A1.7,1.7,0,0,1,151,48.77C151,49.72,150.38,49.81,149.43,49.83Z"/><path class="cls-14" d="M109.63,44.73a63.61,63.61,0,0,1-2.28-12.41,11.13,11.13,0,0,0-4.2,2.34c.69,2.59,2.26,8.47,4.17,15.55l2.36-.5Z"/><path class="cls-14" d="M155.39,67.42l.34,30.86c7.43-3.24,7.69-9.44,6.11-15.5-2-7.45-3.82-13.18-5.05-16.69A6.74,6.74,0,0,1,155.39,67.42Z"/><path class="cls-14" d="M143.77,64.83c-.33.32-.66.63-1,.91a15.52,15.52,0,0,1,2.13.44A7.18,7.18,0,0,1,143.77,64.83Z"/><path class="cls-14" d="M113.45,47.07l1.2-6.5-3.27-3.71,1-5.25-.1,0,0,0a16.57,16.57,0,0,0-4.87.71,63.61,63.61,0,0,0,2.28,12.41l.05,5L114,48.8C113.8,48.23,113.62,47.65,113.45,47.07Z"/><path class="cls-14" d="M148,68.08c-1.09,3.45-7.43,2.82-12.07.47a13.11,13.11,0,0,1-10.38-3.11c-3.93.82-6.4.65-7.36-2.72-.52-1.82-2.06-6.91-3.77-12.54l-4.25.9c.44,1.51,3.69,12.45,4.12,14.3a10.12,10.12,0,0,1-2.87-.2c3.17,11.58,6.31,22.72,7.58,26.4a11.44,11.44,0,0,0,5.75,6.6c5.37-3.45,8.69-5.42,8.69-5.42s6.4,2.81,15.8,7.28a26,26,0,0,0,6.51-1.76l-.34-30.86A8.06,8.06,0,0,1,148,68.08Z"/><path class="cls-14" d="M145.39,100.45c1.38-.09,2.65-.23,3.83-.41-9.4-4.47-15.8-7.28-15.8-7.28s-3.32,2-8.69,5.42C129.61,100.74,136.85,101,145.39,100.45Z"/><path class="cls-8" d="M142.76,65.74a13.6,13.6,0,0,1-6.85,2.81c4.64,2.35,11,3,12.07-.47a9.21,9.21,0,0,1-3.09-1.9A15.52,15.52,0,0,0,142.76,65.74Z"/><path class="cls-8" d="M128.34,55.73a9,9,0,0,0,9.2-10l-18.45,1C119.32,51.34,121.46,55.8,128.34,55.73Zm1.83-2.08c-1.36,0-2.46-.65-2.48-1.51l4.89-.1C132.6,52.9,131.52,53.62,130.17,53.65Zm-4.06-3.73a10.31,10.31,0,0,1,2.33-1.05A9.62,9.62,0,0,1,131,48.4c.27,0,.49,0,.68,0h.06a3.09,3.09,0,0,1,.48.05l0,0a1.85,1.85,0,0,1,1.41,1.76c0,1-.77,1.19-1.8,1.2s-1.93-.13-1.94-1.16a2,2,0,0,1,.08-.42,10.05,10.05,0,0,1-1,.38,10.53,10.53,0,0,1-2.51.47,5.86,5.86,0,0,1-1.22-.05A5.81,5.81,0,0,1,126.11,49.92Z"/><path class="cls-15" d="M131.65,48.39h0Z"/><path class="cls-15" d="M129.88,49.86a2,2,0,0,0-.08.42c0,1,.91,1.17,1.94,1.16s1.81-.17,1.8-1.2a1.85,1.85,0,0,0-1.41-1.76,5.3,5.3,0,0,1-.93.71A9,9,0,0,1,129.88,49.86Z"/><path class="cls-16" d="M107.32,50.21l-.12,0,.26,1.26.18-.12C107.53,51,107.43,50.59,107.32,50.21Z"/><path class="cls-16" d="M119.35,49.13l-.29-1.41L114,48.8c.15.46.29.92.43,1.38Z"/><path class="cls-16" d="M109.7,50.87l0-1.16-2.36.5c.11.38.21.77.32,1.16A3.61,3.61,0,0,1,109.7,50.87Z"/><path class="cls-16" d="M110.15,51.08l4.25-.9c-.14-.46-.28-.92-.43-1.38l-4.29.91,0,1.16.39,0Z"/><path class="cls-17" d="M109,61.46a6,6,0,0,1-2.43-5.91c.28-1.44,1-2.07,1.6-2.19l-.48-1.76-.21,0,0-.15c-3.44,2.35-3.28,10.67,2.39,13.19l0-2.78A5.73,5.73,0,0,1,109,61.46Z"/><path class="cls-17" d="M110.57,62.16a3.91,3.91,0,0,1-.75-.26l0,2.78a8,8,0,0,0,1.55.5C111.12,64.18,110.85,63.17,110.57,62.16Z"/><path class="cls-17" d="M109.64,54.55c0,.48,0,1.05,0,1.66a16.43,16.43,0,0,0,.15,1.67l-.08-6.7-2,.42.48,1.76A1.26,1.26,0,0,1,109.64,54.55Z"/><path class="cls-17" d="M114.27,65.38c-.43-1.85-3.68-12.79-4.12-14.3l-.45.1.08,6.7a6.8,6.8,0,0,0,2,4.46,4.53,4.53,0,0,1-1.24-.18c.28,1,.55,2,.83,3A10.12,10.12,0,0,0,114.27,65.38Z"/><path class="cls-17" d="M107.7,51.6l-.06-.23-.18.12,0,.15Z"/><path class="cls-17" d="M109.7,50.87a3.61,3.61,0,0,0-2.06.5l.06.23,2-.42Z"/><path class="cls-17" d="M110.15,51.08l-.06-.18-.39,0v.31Z"/><polygon class="cls-14" points="121.1 36.4 120.83 40.42 134.63 39.78 132.85 34.72 121.1 36.4"/><polygon class="cls-14" points="153.34 40.78 151.77 36.6 151.11 36.59 152.57 40.83 153.34 40.78"/><polygon class="cls-14" points="143.07 41.47 152.57 40.83 151.11 36.59 143.34 36.5 143.07 41.47"/><path class="cls-15" d="M142.92,62.07a5.46,5.46,0,0,1,.05-.8,13.28,13.28,0,0,1-4.14-1l-16.57-2.47a10.1,10.1,0,0,0,3.27,7.65c3.47-.72,8.08-2.21,13.84-2.95C140.65,62.32,141.82,62.18,142.92,62.07Z"/><path class="cls-15" d="M135.91,68.55A12.32,12.32,0,0,1,132,65.68a51.57,51.57,0,0,1,10.72.06c.35-.28.68-.59,1-.91a5.39,5.39,0,0,1-.85-2.76c-1.1.11-2.27.25-3.55.42-5.76.74-10.37,2.23-13.84,2.95A13.11,13.11,0,0,0,135.91,68.55Z"/><path class="cls-15" d="M132,65.68a12.32,12.32,0,0,0,3.87,2.87,13.6,13.6,0,0,0,6.85-2.81A51.57,51.57,0,0,0,132,65.68Z"/><path class="cls-15" d="M156.79,66.09a10.37,10.37,0,0,0,1.92-6.26c-.34.07-1.67.18-3.41.31l0,2S155.89,63.54,156.79,66.09Z"/><path class="cls-15" d="M145.16,61.2l1.17.18c-.07.14-.16.27-.23.41,4.56-.33,7.32-.13,9.23.35h0l0-2c-2.39.17-5.54.37-8.07.52A7.94,7.94,0,0,1,145.16,61.2Z"/><path class="cls-15" d="M155.33,62.31s0,1.27,0,3.42l0,1.69a6.74,6.74,0,0,0,1.4-1.33c-.9-2.55-1.46-4-1.46-4Z"/><path class="cls-15" d="M144.89,66.18a12.1,12.1,0,0,1,3.22,1.51,1.63,1.63,0,0,1-.13.39,8.06,8.06,0,0,0,7.41-.66l0-1.69c0-2.15,0-3.42,0-3.42v-.17h0c-1.91-.48-4.67-.68-9.23-.35a13.82,13.82,0,0,1-2.33,3A7.18,7.18,0,0,0,144.89,66.18Z"/><path class="cls-15" d="M144.89,66.18a9.21,9.21,0,0,0,3.09,1.9,1.63,1.63,0,0,0,.13-.39A12.1,12.1,0,0,0,144.89,66.18Z"/><path class="cls-15" d="M143,61.27a5.46,5.46,0,0,0-.05.8c1.15-.12,2.2-.21,3.18-.28.07-.14.16-.27.23-.41l-1.17-.18a8.62,8.62,0,0,1-1.37.12C143.53,61.32,143.25,61.29,143,61.27Z"/><path class="cls-15" d="M143.77,64.83a13.82,13.82,0,0,0,2.33-3c-1,.07-2,.16-3.18.28A5.39,5.39,0,0,0,143.77,64.83Z"/><path class="cls-18" d="M147.23,60.66a5.21,5.21,0,0,0,2-1.45l.42-.52-.49-.45a28.94,28.94,0,0,1-5.76-7.07,10.17,10.17,0,0,1-2.36-5.66l-.73,0c.34,4.64,2.46,8.49,7.33,13.22-1.53,1.2-5,1.83-9.11-.17L138,59.89c.3.14.59.25.88.37l4.3.64Z"/><path class="cls-18" d="M143.44,51.17a13.63,13.63,0,0,1-1.67-5.69l-.69,0A10.17,10.17,0,0,0,143.44,51.17Z"/><path class="cls-18" d="M143,60.91h.11l-4.3-.64a13.28,13.28,0,0,0,4.14,1C143,61.15,143,61,143,60.91Z"/><path class="cls-18" d="M145.16,61.2a7.94,7.94,0,0,0,2.07-.54l-4.1.24Z"/><path class="cls-18" d="M143,60.91c0,.12,0,.24-.05.36.28,0,.56,0,.82,0a8.62,8.62,0,0,0,1.37-.12l-2-.3Z"/><path class="cls-15" d="M149.79,47.21a5.71,5.71,0,0,1-.82.57,7.4,7.4,0,0,1-1.35.58,1.64,1.64,0,0,0-.09.5c0,.94.95,1,1.9,1s1.55-.11,1.53-1.06A1.7,1.7,0,0,0,149.79,47.21Z"/><path class="cls-16" d="M154.62,44c0,.28.06.55.09.81l1.14-.06-.12-2.16-3.21.18-.2,1.35C153.36,44,154.19,44,154.62,44Z"/><path class="cls-16" d="M118,46.78l1-.05c0-.22,0-.44,0-.66,0,0,14.42-.84,18.41-.89,0,.18,0,.35.06.53l2.81-.16c0-.36-.06-.72-.07-1.09l1.44,0c0,.14,0,.27,0,.4,1.89-.15,7.3-.57,10.59-.77l.2-1.35-34.6,1.91Z"/><path class="cls-16" d="M152.32,44.07l-.11.83,2.5-.14c0-.26-.05-.53-.09-.81C154.19,44,153.36,44,152.32,44.07Z"/><path class="cls-16" d="M152.21,44.9l.11-.83c-3.29.2-8.7.62-10.59.77,0,.21,0,.42,0,.64Z"/><path class="cls-16" d="M119.07,46.07c0,.22,0,.44,0,.66l18.45-1c0-.18,0-.35-.06-.53C133.49,45.23,119.07,46.07,119.07,46.07Z"/><path class="cls-16" d="M141.05,44.9l.68-.06c0-.13,0-.26,0-.4l-1.44,0c0,.37.05.73.07,1.09l.73,0C141.07,45.31,141.05,45.1,141.05,44.9Z"/><path class="cls-16" d="M141.08,45.51l.69,0c0-.22,0-.43,0-.64l-.68.06C141.05,45.1,141.07,45.31,141.08,45.51Z"/><path class="cls-15" d="M107.24,30.86c-.09-1.42-.09-2.26-.09-2.26s25.42-13.19,39.48-5l1.14,3.31h0c5.15-4.3.31-20.32-24-16.23C100.58,14.58,97.16,33.18,100,40.62a10.36,10.36,0,0,1,3.2-6l-.38-1.43Z"/><path class="cls-15" d="M107.15,28.6s0,.84.09,2.26l.14-.08-.16-.48.72.19.36-.2s0,.11.1.31l3.85,1c6.31-6.23,25-10.82,35.52-4.69l-1.14-3.31C132.57,15.41,107.15,28.6,107.15,28.6Z"/><path class="cls-15" d="M107.24,30.86l-4.47,2.37.38,1.43a11.13,11.13,0,0,1,4.2-2.34C107.31,31.78,107.27,31.29,107.24,30.86Z"/><path class="cls-15" d="M112.25,31.58l-3.85-1c-.07-.2-.1-.31-.1-.31l-.36.2-.72-.19.16.48-.14.08c0,.43.07.92.11,1.46a16.57,16.57,0,0,1,4.87-.71Z"/><path class="cls-4" d="M109.16,57l-1-3.64c-.65.12-1.32.75-1.6,2.19A6,6,0,0,0,109,61.46,5,5,0,0,1,109.16,57Z"/><path class="cls-4" d="M109.63,56.21c0-.61,0-1.18,0-1.66a1.26,1.26,0,0,0-1.46-1.19l1,3.64A6.59,6.59,0,0,1,109.63,56.21Z"/><path class="cls-19" d="M109.16,57a5,5,0,0,0-.15,4.46,5.73,5.73,0,0,0,.81.44l0-2.6Z"/><path class="cls-19" d="M109.82,61.9a3.91,3.91,0,0,0,.75.26l-.78-2.86Z"/><path class="cls-19" d="M109.16,57l.63,2.3V57.88a16.43,16.43,0,0,1-.15-1.67A6.59,6.59,0,0,0,109.16,57Z"/><path class="cls-19" d="M109.78,57.88V59.3l.78,2.86a4.53,4.53,0,0,0,1.24.18A6.8,6.8,0,0,1,109.78,57.88Z"/><path class="cls-7" d="M165.72,127.59a47.07,47.07,0,0,0-6.61-7.44c-.67,1-1.38,2-2.07,3.09a11.29,11.29,0,0,1-.42,3.87h0C158.14,123.51,161.7,123.21,165.72,127.59Z"/><path class="cls-7" d="M144,126l-3.88-.85a93.2,93.2,0,0,0-5.91,11.71c3.93-6.63,7.76-11,12.45-7l.06,0A11.06,11.06,0,0,1,144,126Z"/><path class="cls-20" d="M146.74,129.89a8.33,8.33,0,0,0,2.52,1.83l.42-.06v0A9,9,0,0,1,146.74,129.89Z"/><path class="cls-20" d="M156.62,127.11a11,11,0,0,1-1.66,2.82l.23.57A8.77,8.77,0,0,0,156.62,127.11Z"/><path class="cls-20" d="M156.55,118.37a8.36,8.36,0,0,0-1.49-.64,8.32,8.32,0,0,1-.66,1.11Z"/><path class="cls-20" d="M155.06,117.73a5.66,5.66,0,0,0-2.87-.25c-1.24.48-7.17,1.7-7.17,1.7a18.86,18.86,0,0,0-2.11,2.16l11.49-2.5A8.32,8.32,0,0,0,155.06,117.73Z"/><path class="cls-20" d="M150.39,129.15h4.26l.31.77a11,11,0,0,0,1.66-2.82,11.29,11.29,0,0,0,.42-3.87c.69-1,1.4-2.1,2.07-3.09a15.16,15.16,0,0,0-2.56-1.78l-2.15.47a9.54,9.54,0,0,1-1,1.13c3,1.77,3.08,7.42.38,8.68a2.41,2.41,0,0,0-1.89-.56,2.16,2.16,0,0,0-1.87,1.24c-2.93-1.29-4.3-3.8-4.14-5.83a31.32,31.32,0,0,1-5.06.58c-.24.35-.46.73-.69,1.1L144,126a11.06,11.06,0,0,0,2.72,3.86,9,9,0,0,0,2.95,1.74Z"/><path class="cls-20" d="M145.89,123.5a3.05,3.05,0,0,1,1.26-2.37s3.94-.73,6-1.3l.24.14a9.54,9.54,0,0,0,1-1.13l-11.49,2.5a27.24,27.24,0,0,0-2.08,2.74A31.32,31.32,0,0,0,145.89,123.5Z"/><path class="cls-20" d="M155.19,130.5a1.2,1.2,0,0,1-.54.38c-.08,0-.42.09-.89.17l0,0a.85.85,0,0,1,.53.15c.19.3,4.67,10.38,4.79,11.39.07.55,2.6,26.66,4.93,50.36.08-.39.18-.8.26-1.19l-4.62-50.22Z"/><path class="cls-20" d="M148.05,142.45c0-1.48,1.86-6.1,3.22-10.56a5.28,5.28,0,0,1-1.52-.24h-.07l-2.88,10.12.57,43.88c.17.39.33.78.49,1.18C147.94,165.13,148.07,143.21,148.05,142.45Z"/><path class="cls-20" d="M151.86,131.34l-2.11.31a5.28,5.28,0,0,0,1.52.24l.06-.2A1.53,1.53,0,0,1,151.86,131.34Z"/><path class="cls-20" d="M153.62,131.07h.1l0,0Z"/><path class="cls-20" d="M155.19,130.5l-.23-.57a6,6,0,0,1-1.2,1.12c.47-.08.81-.14.89-.17A1.2,1.2,0,0,0,155.19,130.5Z"/><path class="cls-20" d="M149.68,131.66h.07l-.06,0Z"/><path class="cls-20" d="M153.62,131.07l.14,0a6,6,0,0,0,1.2-1.12l-.31-.77h-4.26l-.7,2.48.06,0,2.11-.31A4.53,4.53,0,0,1,153.62,131.07Z"/><path class="cls-21" d="M150,129.33a2.16,2.16,0,0,1,1.87-1.24,2.41,2.41,0,0,1,1.89.56c2.7-1.26,2.65-6.91-.38-8.68a14.65,14.65,0,0,1-7.52,3.53C145.73,125.53,147.1,128,150,129.33Z"/><path class="cls-21" d="M147.15,121.13a3.05,3.05,0,0,0-1.26,2.37,14.65,14.65,0,0,0,7.52-3.53l-.24-.14C151.09,120.4,147.15,121.13,147.15,121.13Z"/><path class="cls-21" d="M164,193c-2.33-23.7-4.86-49.81-4.93-50.36-.12-1-4.6-11.09-4.79-11.39a.85.85,0,0,0-.53-.15,4.3,4.3,0,0,1-2.45.81c-1.36,4.46-3.24,9.08-3.22,10.56,0,.76-.11,22.68-.19,44.39a278.71,278.71,0,0,1,10.58,29.38C160.57,208.17,162.41,200.44,164,193Z"/><path class="cls-21" d="M153.72,131.08h-.1l-1.76.27a1.53,1.53,0,0,0-.53.35l-.06.2A4.3,4.3,0,0,0,153.72,131.08Z"/><path class="cls-21" d="M151.86,131.34l1.76-.27A4.53,4.53,0,0,0,151.86,131.34Z"/><path class="cls-7" d="M156.72,101.63l-.8-.36q.12,1,.15,2.07l1.2.59A6,6,0,0,0,156.72,101.63Z"/><path class="cls-7" d="M165.66,108.11l.53.26c-.1-.41-.2-.84-.31-1.26-.16-.14-.53-.46-1.14-.92l.21.19A17.44,17.44,0,0,1,165.66,108.11Z"/><path class="cls-7" d="M110.25,100.8c-.24-.34-.5-.67-.71-1l-.45.71c.36.63.76,1.24,1.18,1.84Z"/><path class="cls-7" d="M103.19,112.35s1.54-3.8,3.16-7.16a37.71,37.71,0,0,0-3.42,7.82l0,0,.48-.35C103.35,112.58,103.26,112.46,103.19,112.35Z"/><path class="cls-7" d="M103.46,112.73l0,0L103,113l0,.06Z"/><path class="cls-7" d="M139.32,125l-1-.2a88.06,88.06,0,0,0-5.05,10.46c-5.58-1.74-12.07-5.91-17.66-10.4.57.79,1.15,1.62,1.72,2.46,6,4.63,12.55,8.6,16.86,9.57C134,134.37,137.14,128.67,139.32,125Z"/><path class="cls-7" d="M167.22,126.63a28.78,28.78,0,0,0-7.06-8l-.56.83c2.32,2.12,6.6,6.51,8.84,11.75a13.86,13.86,0,0,0,.8-5.17,122.67,122.67,0,0,0-3.05-17.64l-.53-.26C168.23,115.14,167.07,123.69,167.22,126.63Z"/><path class="cls-7" d="M168.44,131.18a25.36,25.36,0,0,0-2.72-3.59C166.76,129,167.69,130.24,168.44,131.18Z"/><path class="cls-7" d="M155.84,107.79l0,4.84.09-.12a26.47,26.47,0,0,0,1.29-8.58l-1.2-.59A24.64,24.64,0,0,1,155.84,107.79Z"/><path class="cls-7" d="M113.2,105.83l.92-.62a25.88,25.88,0,0,1-3.87-4.41l0,1.52A27,27,0,0,0,113.2,105.83Z"/><path class="cls-7" d="M137.61,118.93l.37-.72,6.91.71,7.67-1.8,3.33-4.49,0-4.84c-.67,4.55-2.5,7.95-4.07,9.15,0,0-4.58,1.17-6.7,1.59-6.82-.89-21.9-5-30.95-13.32l-.92.62C120.1,112.88,130.78,117.14,137.61,118.93Z"/><path class="cls-7" d="M139.32,125c-2.18,3.67-5.28,9.37-5.09,11.89a93.2,93.2,0,0,1,5.91-11.71Z"/><path class="cls-7" d="M165.72,127.59a25.36,25.36,0,0,1,2.72,3.59c-2.24-5.24-6.52-9.63-8.84-11.75l-.49.72A47.07,47.07,0,0,1,165.72,127.59Z"/><path class="cls-7" d="M139.69,124.12l-.93,0c-.13.23-.27.46-.4.7l1,.2.53-.89Z"/><path class="cls-7" d="M158,118.05s.63.5,1.58,1.38l.56-.83a13.39,13.39,0,0,0-4.54-2.38,8.32,8.32,0,0,1-.56,1.51,8.36,8.36,0,0,1,1.49.64Z"/><path class="cls-7" d="M156,112.51l-.09.12v.16Z"/><path class="cls-7" d="M144.89,118.92l-6.91-.71-.37.72a37.82,37.82,0,0,0,4,.86,34.29,34.29,0,0,0-2.87,4.31l.93,0h.16c.89-1.46,1.53-2.44,1.53-2.44l1.53-.33a18.86,18.86,0,0,1,2.11-2.16s5.93-1.22,7.17-1.7a5.66,5.66,0,0,1,2.87.25,8.32,8.32,0,0,0,.56-1.51,6,6,0,0,0-1-.19,20.89,20.89,0,0,0,1.25-3.24v-.16l-3.33,4.49Z"/><path class="cls-7" d="M156.55,118.37a15.16,15.16,0,0,1,2.56,1.78l.49-.72c-.95-.88-1.58-1.38-1.58-1.38Z"/><path class="cls-7" d="M140.83,124.08c-.33,0-.65,0-1,0l-.53.89.82.18C140.37,124.81,140.59,124.43,140.83,124.08Z"/><path class="cls-7" d="M142.91,121.34l-1.53.33s-.64,1-1.53,2.44c.33,0,.65,0,1,0A27.24,27.24,0,0,1,142.91,121.34Z"/><path class="cls-6" d="M109.09,100.48a22.72,22.72,0,0,0-2.74,4.71c1.1-2,2.17-3.78,2.74-4.71Z"/><path class="cls-6" d="M103.43,112.69c2.76-2,5.43-3.87,8-5.62a11.09,11.09,0,0,1-1.12-4.16v-.59c-.42-.6-.82-1.21-1.18-1.84-.57.93-1.64,2.69-2.74,4.71-1.62,3.36-3.16,7.16-3.16,7.16S103.35,112.58,103.43,112.69Z"/><path class="cls-6" d="M115.65,124.86c5.59,4.49,12.08,8.66,17.66,10.4a88.06,88.06,0,0,1,5.05-10.46,28.85,28.85,0,0,1-3.31-.79,1.15,1.15,0,0,1,0-.15,29.89,29.89,0,0,1-23.71-16.79c-2.53,1.75-5.2,3.63-8,5.62l0,0,.48-.38C107.58,114.82,111.55,119.21,115.65,124.86Z"/><path class="cls-6" d="M110.27,102.32v.59a11.09,11.09,0,0,0,1.12,4.16l1.81-1.24A27,27,0,0,1,110.27,102.32Z"/><path class="cls-6" d="M135.1,123.86c.29-.66,1.8-3.56,2.51-4.93-6.83-1.79-17.51-6.05-24.41-13.1l-1.81,1.24A29.89,29.89,0,0,0,135.1,123.86Z"/><path class="cls-6" d="M135.1,123.86a1.15,1.15,0,0,0,0,.15,28.85,28.85,0,0,0,3.31.79c.13-.24.27-.47.4-.7A33.08,33.08,0,0,1,135.1,123.86Z"/><path class="cls-6" d="M141.63,119.79a37.82,37.82,0,0,1-4-.86c-.71,1.37-2.22,4.27-2.51,4.93a33.08,33.08,0,0,0,3.66.24A34.29,34.29,0,0,1,141.63,119.79Z"/><path class="cls-6" d="M156.7,101.57s0,0,0,.06a43.6,43.6,0,0,1,8,4.56C161.79,103.5,156.7,101.57,156.7,101.57Z"/><path class="cls-6" d="M165.66,108.11a17.44,17.44,0,0,0-.71-1.73l-.21-.19a43.6,43.6,0,0,0-8-4.56,6,6,0,0,1,.55,2.3C160,105.24,162.77,106.64,165.66,108.11Z"/><path class="cls-6" d="M162.66,115l-2.5,3.64a28.78,28.78,0,0,1,7.06,8c-.15-2.94,1-11.49-1.56-18.52-2.89-1.47-5.7-2.87-8.39-4.18a26.47,26.47,0,0,1-1.29,8.58l.69-.94Z"/><path class="cls-6" d="M155.9,113.92a8.68,8.68,0,0,1-.28,2.3,13.39,13.39,0,0,1,4.54,2.38l2.5-3.64-6-3.39-.69.94-.09.28Z"/><path class="cls-6" d="M155.89,112.79a20.89,20.89,0,0,1-1.25,3.24,6,6,0,0,1,1,.19,8.68,8.68,0,0,0,.28-2.3Z"/><path class="cls-15" d="M132.17,48.45a3.09,3.09,0,0,0-.48-.05,1.63,1.63,0,0,1,.44.08Z"/><path class="cls-15" d="M126.36,50.71a10.53,10.53,0,0,0,2.51-.47,10.05,10.05,0,0,0,1-.38,1.84,1.84,0,0,1,1.75-1.47c-.19,0-.41,0-.68,0a9.62,9.62,0,0,0-2.51.47,10.31,10.31,0,0,0-2.33,1.05,5.81,5.81,0,0,0-1,.74A5.86,5.86,0,0,0,126.36,50.71Z"/><path class="cls-15" d="M129.88,49.86a9,9,0,0,0,1.32-.67,5.3,5.3,0,0,0,.93-.71,1.63,1.63,0,0,0-.44-.08h-.06A1.84,1.84,0,0,0,129.88,49.86Z"/><path class="cls-15" d="M149.2,47.1a1.63,1.63,0,0,1,.59.11l0,0a3.85,3.85,0,0,0-.95-.11,7.34,7.34,0,0,0-2,.27,8.35,8.35,0,0,0-1.93.78,5.16,5.16,0,0,0-.84.59,4.54,4.54,0,0,0,.95.11,7.62,7.62,0,0,0,2-.27,5.84,5.84,0,0,0,.59-.2A1.69,1.69,0,0,1,149.2,47.1Z"/><path class="cls-15" d="M149.79,47.21a1.63,1.63,0,0,0-.59-.11,1.69,1.69,0,0,0-1.58,1.26,7.4,7.4,0,0,0,1.35-.58A5.71,5.71,0,0,0,149.79,47.21Z"/><path class="cls-22" d="M130.17,53.65c1.35,0,2.43-.75,2.41-1.61l-4.89.1C127.71,53,128.81,53.67,130.17,53.65Z"/><path class="cls-22" d="M148.35,52.07c1.36,0,2.44-.75,2.42-1.61l-4.89.1C145.89,51.42,147,52.1,148.35,52.07Z"/><polygon class="cls-5" points="157.44 252.73 157.51 252.54 156.1 252.01 156.03 252.21 157.44 252.73"/><path class="cls-5" d="M156,252.38l-1.75,4.84,1.45.55,1.72-4.88Z"/><polygon class="cls-5" points="160.34 254.64 158.82 258.96 164.16 260.97 167.54 262.16 167.66 261.83 165.73 256.54 160.34 254.64"/><path class="cls-5" d="M156,252.28l0,.1,1.42.51,0-.09Z"/><polygon class="cls-5" points="157.44 252.73 156.03 252.21 156 252.28 157.42 252.8 157.44 252.73"/><polygon class="cls-23" points="158.72 252.65 157.61 252.26 157.51 252.54 158.61 252.96 158.72 252.65"/><polygon class="cls-23" points="158.78 259.07 158.76 259.13 166.54 261.86 164.16 260.97 158.78 259.07"/><polygon class="cls-23" points="155.67 257.77 155.56 258.06 156.68 258.45 156.77 258.19 155.67 257.77"/><polygon class="cls-23" points="165.37 255.57 160.61 253.89 160.6 253.9 165.41 255.68 165.37 255.57"/><polygon class="cls-23" points="158.54 253.14 158.61 252.96 157.51 252.54 157.44 252.73 158.54 253.14"/><path class="cls-23" d="M165.47,255.83l-4.92-1.78-.21.59,5.39,1.9Z"/><path class="cls-23" d="M158.49,253.3l-1.1-.41-1.72,4.88,1.1.41Z"/><polygon class="cls-23" points="167.66 261.83 167.54 262.16 164.16 260.97 166.54 261.86 167.83 262.32 167.66 261.83"/><path class="cls-23" d="M157.42,252.8l0,.09,1.1.41,0-.1Z"/><path class="cls-23" d="M165.43,255.74,160.58,254l0,.09,4.92,1.78Z"/><polygon class="cls-23" points="165.41 255.68 160.6 253.9 160.58 253.96 165.43 255.74 165.41 255.68"/><polygon class="cls-23" points="158.52 253.21 158.54 253.14 157.44 252.73 157.42 252.8 158.52 253.21"/><path class="cls-24" d="M159.05,251.71,164.8,254l-.23-.64-5.43-1.91Z"/><path class="cls-24" d="M164.8,254l-5.75-2.28-.33.94,6.41,2.26Z"/><polygon class="cls-24" points="156.68 258.45 156.09 260.11 164.41 263.04 164.48 262.81 167.08 263.73 167 263.95 168.64 264.53 167.86 262.39 156.68 258.45"/><polygon class="cls-24" points="157.72 258.54 157.67 258.68 158.78 259.07 158.82 258.96 157.72 258.54"/><polygon class="cls-24" points="164.48 262.81 164.41 263.04 167 263.95 167.08 263.73 164.48 262.81"/><polygon class="cls-24" points="160.34 254.64 159.23 254.25 157.72 258.54 158.82 258.96 160.34 254.64"/><polygon class="cls-24" points="165.35 255.51 165.13 254.91 158.72 252.65 158.61 252.96 165.35 255.51"/><polygon class="cls-24" points="167.85 262.36 166.54 261.86 158.76 259.13 158.78 259.07 157.67 258.68 157.72 258.54 156.77 258.19 156.68 258.45 167.86 262.39 167.85 262.36"/><polygon class="cls-24" points="160.61 253.89 165.37 255.57 165.35 255.51 158.61 252.96 158.54 253.14 160.6 253.9 160.61 253.89"/><polygon class="cls-24" points="166.54 261.86 167.85 262.36 167.83 262.32 166.54 261.86"/><path class="cls-24" d="M160.34,254.64l.21-.59-2.06-.75-1.72,4.88.95.36,1.51-4.29Z"/><path class="cls-24" d="M160.58,254l-2.06-.76,0,.1,2.06.75Z"/><polygon class="cls-24" points="160.58 253.96 160.6 253.9 158.54 253.14 158.52 253.21 160.58 253.96"/><path class="cls-2" d="M66.31,145.4a13.83,13.83,0,0,1-.29-1.79c3.94-3.88,8.12-7.67,12.39-11.33l-11.64,9.08S46.19,181.84,33.87,207a59.16,59.16,0,0,0,7.84,15.63,53.57,53.57,0,0,1-6.87-15.47C40.12,195.66,53.06,170.24,66.31,145.4Z"/><path class="cls-2" d="M166.44,108.5c2.62,1.33,5.3,2.72,8,4.14l-1.4-2.56,1.43.73c-3.41-1.74-6.51-3.31-8.77-4.43.06.24.11.49.17.73l.11.1C166.15,107.63,166.29,108.06,166.44,108.5Z"/><path class="cls-2" d="M98.33,255.15c-25.8-7.87-40.87-15.81-50.11-24.73C61.38,243.71,80.07,250.83,98.33,255.15Z"/><path class="cls-2" d="M82.9,210.77l20.8-23.26-.51-.27h0c-6,5.67-17.65,16.78-23,23.53,14.7,21.74,19.59,32.75,29,39.7a5.07,5.07,0,0,1,.56-.13C102.83,245.18,82.9,210.77,82.9,210.77Z"/><path class="cls-2" d="M119.89,244.3l.85-4.94h0a9.66,9.66,0,0,1-4.16-5.89,106,106,0,0,1-6.12,12.25,43.49,43.49,0,0,0,8.1,5.24l1.5-6.6Z"/><path class="cls-2" d="M116.72,233.17a19.91,19.91,0,0,0,4.11,3.21c.63-6.87,7.88-23-1-40.48l.86,27.42S119.05,227.75,116.72,233.17Z"/><path class="cls-2" d="M179.25,207l3-6.76-.51-.55c-2,4.84-3.27,8-3.27,8.91,0,27.82,1.07,43.65,7.45,48.93,0,0,.48,2.4-2.42,4.84v2.07q3-1.08,5.83-2.29L180,235.66Z"/><path class="cls-2" d="M109.15,250.47c-9.39-6.95-14.28-18-29-39.7C76.51,208,63.92,206,58.53,207.29c4.49-2.34,17-3.48,21.64,3.48,5.37-6.75,17-17.86,23-23.53,0-.2.09-.42.14-.65-21.24-14-34.84-31.21-37-41.19-13.25,24.84-26.19,50.26-31.47,61.77a53.57,53.57,0,0,0,6.87,15.47,60.43,60.43,0,0,0,6.51,7.78c9.24,8.92,24.31,16.86,50.11,24.73,1,.25,2.07.49,3.11.71C101.44,255.86,105.38,251.44,109.15,250.47Z"/><path class="cls-2" d="M196.74,128.26s.58,1.37,1.54,3.67c0-2,0-3.89-.1-5.83-6.82-4.23-14.32-8.45-21.72-12.39,2.58,4.66,7.58,14.83,9.2,26.15A40.62,40.62,0,0,1,196.74,128.26Z"/><path class="cls-2" d="M169.24,126c1.94,19.16.13,40.84-5,65.78l1.24,13.5c2.69-6.73,5.85-15.23,8.77-24.62-.44-9.23,1.81-21.23,6.55-31.84-3.2-1.15-7.74-3.45-7.74-3.45l11.58-3.91c-.82-10.1-5.71-20.54-10.18-28.83-2.71-1.42-5.39-2.81-8-4.14A57.7,57.7,0,0,1,169.24,126Z"/><path class="cls-2" d="M176,145.38l5.23,2.49q1.13-2.42,2.41-4.69C180.32,144.1,176,145.38,176,145.38Z"/><path class="cls-2" d="M181.85,199.5a51.51,51.51,0,0,1-5.25-8.16,22.55,22.55,0,0,1-2.08-7.33c-2.73,8.19-5.78,16.23-8.86,23.42L167.83,231c.25.41-9.87,8.34-9.87,8.34s-9.62-8.33-10-9.5c-.08-.26-.13-4.55-.14-11.11l-.16-12c-14-19.31-32.18-45-32.18-45l8.11-8.8-12.4,1.88-16.26-35,1.37-1.5c4.28,8,16.35,34.66,16.35,34.66l14.94-2.33-10.22,11.07,30.27,43-.25-19c-8.2-19.75-19.4-42.91-30-58.34C111,122.4,105.09,116.74,103,113.1L78.41,132.28C74.14,135.94,70,139.73,66,143.61a13.83,13.83,0,0,0,.29,1.79v0c17.62,1.54,30.21,18.94,36.39,29.75-1.42-4.49-4.45-9.7-10.54-15.15,16.79,13.68,25.93,30,27.61,35.92,8.93,17.49,1.68,33.61,1,40.48a86.53,86.53,0,0,0,20.51,8.93c2.68.64,8.82,2.93,15.22,5.43l3.51-9.71,4.5,12.32,8.48,3-.3.84,2.65,1.05c4.79,1.83,7.91,2.29,9.23,1.23a14.9,14.9,0,0,1-1.63,2.72l-.15-.06.68.26c2.9-2.44,2.42-4.84,2.42-4.84-6.38-5.28-7.45-21.11-7.45-48.93,0-.89,1.32-4.07,3.27-8.91h0C181.8,199.63,181.82,199.57,181.85,199.5Z"/><path class="cls-2" d="M103.33,186.59a22.23,22.23,0,0,0-.62-11.46c-6.18-10.81-18.77-28.21-36.39-29.75v0C68.49,155.38,82.09,172.61,103.33,186.59Z"/><path class="cls-2" d="M174.24,180.67a224.76,224.76,0,0,0,7.53-31.51l-1-.33C176.05,159.44,173.8,171.44,174.24,180.67Z"/><path class="cls-2" d="M185.66,139.86c.12.89.24,1.79.32,2.7l-2.35.62q-1.29,2.28-2.41,4.69l2.31,1.1c-1.56,10.31-4.92,22.82-9,35a22.55,22.55,0,0,0,2.08,7.33,51.51,51.51,0,0,0,5.25,8.16c5.58-14.63,12.51-35,14.84-49.52a120.83,120.83,0,0,0,1.59-18c-1-2.3-1.54-3.67-1.54-3.67A40.62,40.62,0,0,0,185.66,139.86Z"/><path class="cls-2" d="M116.72,233.17l-.14.3a9.66,9.66,0,0,0,4.16,5.89h0l.12-.67.18.07a4.82,4.82,0,0,1-.21-2.38A19.91,19.91,0,0,1,116.72,233.17Z"/><path class="cls-2" d="M121,238.76l8,3-.14.41,2,.75.14-.39,15.17,5.73-.1.27,2,.75.09-.26,7.89,3,.46-1.27c-6.4-2.5-12.54-4.79-15.22-5.43a86.53,86.53,0,0,1-20.51-8.93A4.82,4.82,0,0,0,121,238.76Z"/><path class="cls-2" d="M178.31,260.41v0l2,.75h0l1.64.62.18.06h0l.7.26.15.06a14.9,14.9,0,0,0,1.63-2.72c-1.32,1.06-4.44.6-9.23-1.23l-2.65-1.05-.35,1Z"/><path class="cls-2" d="M148.05,249.48l-2-.74-1.68,4.76-15.18-5.71,1.65-4.67-2-.75L127.14,247l-7.08-2.67-1.5,6.6c2.37,1.22,4.89,2.33,7.45,3.35l7.53-.81,3.91,4.68c8.39,2.45,15.1,3.67,15.1,3.67l1.67-4.63-7.86-3Z"/><path class="cls-2" d="M178.28,260.48l-1.81,5.12-5.9-2.22L170,265l-1.35-.48,1.36,3.73,1.05.07c2.54-.66,5-1.41,7.53-2.21l1.73-4.9Z"/><path class="cls-2" d="M178.29,260.45v0l2,.74v0Z"/><path class="cls-2" d="M146.06,248.64l0,.1,2,.74,0-.1Z"/><path class="cls-2" d="M128.81,242.32l0,.05,2,.75,0-.06Z"/><polygon class="cls-2" points="148.08 249.38 148.12 249.29 146.09 248.54 146.06 248.64 148.08 249.38"/><polygon class="cls-2" points="130.84 243.06 130.88 242.93 128.86 242.18 128.81 242.31 130.84 243.06"/><polygon class="cls-2" points="180.32 261.19 180.33 261.18 178.3 260.43 178.29 260.45 180.32 261.19"/><polygon class="cls-2" points="182.15 261.85 181.97 261.79 182.15 261.86 182.15 261.85"/><path class="cls-2" d="M167.83,231l-2.17-23.59-.21.51C166.75,221,167.75,230.89,167.83,231Z"/><path class="cls-2" d="M164,193c.44,4.44.87,8.79,1.27,12.87l.23-.56-1.24-13.5C164.15,192.18,164.05,192.59,164,193Z"/><path class="cls-2" d="M147.86,186.84c-.16-.4-.32-.79-.49-1.18l.25,19,.18.26C147.81,199.28,147.83,193.07,147.86,186.84Z"/><path class="cls-2" d="M147.8,206.93c-.05-.07-.1-.15-.16-.22l.16,12C147.79,215.34,147.79,211.32,147.8,206.93Z"/><path class="cls-2" d="M158,239.36l-10-9.5C148.34,231,158,239.36,158,239.36Z"/><path class="cls-2" d="M147.94,229.86l-.14-11.11C147.81,225.31,147.86,229.6,147.94,229.86Z"/><path class="cls-2" d="M167.83,231,158,239.36S168.08,231.43,167.83,231Z"/><path class="cls-2" d="M158.83,221.94c-2.83-3.76-6.73-9.08-11-15,0,4.39,0,8.41,0,11.82l.14,11.11,10,9.5,9.87-8.34c-.08-.13-1.08-10-2.38-23.08C163.2,213.17,161,218,158.83,221.94Zm1.42,8.75a2.53,2.53,0,1,1,2.27-2.52A2.41,2.41,0,0,1,160.25,230.69Z"/><path class="cls-2" d="M158.44,216.22a278.71,278.71,0,0,0-10.58-29.38c0,6.23-.05,12.44-.06,18.12l11,15.65s2.75-5.69,6.41-14.76c-.4-4.08-.83-8.43-1.27-12.87C162.41,200.44,160.57,208.17,158.44,216.22Z"/><path class="cls-2" d="M166.44,108.5c-.15-.44-.29-.87-.45-1.29l-.11-.1c.11.42.21.85.31,1.26Z"/><path class="cls-2" d="M166.44,108.5l-.25-.13A122.67,122.67,0,0,1,169.24,126,57.7,57.7,0,0,0,166.44,108.5Z"/><path class="cls-2" d="M103.46,112.73l-.48.37c2.11,3.64,8,9.3,14.39,14.22-.57-.84-1.15-1.67-1.72-2.46C110.15,120.45,105.53,115.75,103.46,112.73Z"/><path class="cls-2" d="M115.65,124.86c-4.1-5.65-8.07-10-11.71-12.51l-.48.38C105.53,115.75,110.15,120.45,115.65,124.86Z"/><polygon class="cls-2" points="178.3 260.43 178.31 260.41 172.4 258.17 172.37 258.25 178.3 260.43"/><polygon class="cls-2" points="156.1 252.01 148.21 249.03 148.12 249.29 156.03 252.21 156.1 252.01"/><path class="cls-2" d="M170.57,263.38l5.9,2.22,1.81-5.12-5.94-2.15Z"/><polygon class="cls-2" points="165.73 256.54 167.66 261.83 169.1 257.73 165.73 256.54"/><path class="cls-2" d="M148.05,249.48l-1.69,4.78,7.86,3,1.75-4.84Z"/><path class="cls-2" d="M148.08,249.38l0,.1,7.92,2.9,0-.1Z"/><path class="cls-2" d="M172.36,258.28l0,.05,5.94,2.15v0Z"/><polygon class="cls-2" points="156 252.28 156.03 252.21 148.12 249.29 148.08 249.38 156 252.28"/><polygon class="cls-2" points="172.36 258.28 178.29 260.45 178.3 260.43 172.37 258.25 172.36 258.28"/><polygon class="cls-2" points="146.19 248.27 131.02 242.53 130.88 242.93 146.09 248.54 146.19 248.27"/><path class="cls-2" d="M129.16,247.79l15.18,5.71,1.68-4.76c-5.64-2.07-11-4-15.21-5.62Z"/><path class="cls-2" d="M130.84,243.06l0,.06c4.25,1.59,9.57,3.55,15.21,5.62l0-.1Z"/><polygon class="cls-2" points="146.06 248.64 146.09 248.54 130.88 242.93 130.84 243.06 146.06 248.64"/><path class="cls-2" d="M182.73,264.72c.26-.09.54-.17.8-.27v-2.07l-1.38-.5Z"/><path class="cls-2" d="M182.15,261.86v0l1.38.5-.68-.26Z"/><polygon class="cls-2" points="182.15 261.87 182.85 262.12 182.15 261.86 182.15 261.87"/><polygon class="cls-2" points="180.33 261.17 180.33 261.18 181.97 261.79 180.33 261.17"/><path class="cls-2" d="M182.15,261.88l-1.84-.66-1.73,4.9c1.39-.44,2.77-.91,4.15-1.4Z"/><path class="cls-2" d="M180.31,261.22l1.84.66v0l-1.83-.67Z"/><polygon class="cls-2" points="181.97 261.79 180.33 261.18 180.32 261.19 182.15 261.87 182.15 261.86 181.97 261.79"/><polygon class="cls-2" points="120.06 244.37 121.17 239.51 120.74 239.36 119.89 244.3 120.06 244.37"/><path class="cls-2" d="M121.21,239.36l.44.16a1.71,1.71,0,0,1-.61-.76l-.18-.07-.12.67.43.15Z"/><path class="cls-2" d="M121.65,239.52l7.21,2.66.14-.41-8-3A1.71,1.71,0,0,0,121.65,239.52Z"/><path class="cls-2" d="M121.17,239.51l-1.11,4.85,7.08,2.67,1.65-4.66-4.08-1.56Z"/><path class="cls-2" d="M124.71,240.81l4.08,1.56,0-.05Z"/><path class="cls-2" d="M121.91,239.68a1.4,1.4,0,0,1-.26-.16l-.44-.16,0,.15,3.54,1.3C123.37,240.29,122.39,239.9,121.91,239.68Z"/><path class="cls-2" d="M121.91,239.68c.48.22,1.46.61,2.8,1.13l4.1,1.51.05-.14-7.21-2.66A1.4,1.4,0,0,0,121.91,239.68Z"/><polygon class="cls-2" points="170.37 257.33 167.29 256.24 170.35 257.4 170.37 257.33"/><polygon class="cls-2" points="165.41 255.68 170.32 257.49 170.35 257.4 167.29 256.24 165.37 255.57 165.41 255.68"/><path class="cls-2" d="M165.73,256.54l3.37,1.19-1.44,4.11.17.48.7.24,1.75-5-4.81-1.75Z"/><path class="cls-2" d="M165.47,255.83l4.81,1.75,0-.06-4.87-1.78Z"/><polygon class="cls-2" points="165.43 255.74 170.3 257.52 170.32 257.49 165.41 255.68 165.43 255.74"/><path class="cls-2" d="M172.75,257.18l.3-.84-8.48-3,.23.64Z"/><path class="cls-2" d="M165.13,254.91l6,2.11-.21.59,1.5.56.35-1L164.8,254Z"/><polygon class="cls-2" points="167.86 262.39 168.64 264.53 169.99 265.01 170.57 263.38 168.95 262.77 167.86 262.39"/><polygon class="cls-2" points="172.37 258.25 172.4 258.17 170.9 257.61 170.87 257.69 172.37 258.25"/><path class="cls-2" d="M170.84,257.78l-1.77,5-.12,0,1.62.61,1.77-5.05Z"/><path class="cls-2" d="M170.84,257.78l1.5.55,0-.05-1.5-.55Z"/><polygon class="cls-2" points="170.87 257.69 170.86 257.73 172.36 258.28 172.37 258.25 170.87 257.69"/><polygon class="cls-2" points="167.29 256.24 170.37 257.33 170.35 257.4 170.9 257.61 171.11 257.02 165.13 254.91 165.35 255.51 167.29 256.24"/><polygon class="cls-2" points="167.86 262.39 168.95 262.77 167.85 262.36 167.86 262.39"/><polygon class="cls-2" points="170.32 257.49 170.87 257.69 170.9 257.61 170.35 257.4 170.32 257.49"/><polygon class="cls-2" points="167.29 256.24 165.35 255.51 165.37 255.57 167.29 256.24"/><path class="cls-2" d="M168.53,262.56l-.7-.24,0,0,1.1.41.12,0,1.77-5-.56-.2Z"/><path class="cls-2" d="M170.3,257.52l0,.06.56.2,0,0Z"/><polygon class="cls-2" points="170.86 257.73 170.87 257.69 170.32 257.49 170.3 257.52 170.86 257.73"/><path class="cls-5" d="M103.7,187.51l8.94,4.7c-2-1.09-3.89-2.22-5.76-3.37l-2.94-1.6Z"/><path class="cls-5" d="M112.64,192.21c3,1.57,5.89,3.07,7.14,3.69l-12.9-7.06C108.75,190,110.67,191.12,112.64,192.21Z"/><path class="cls-5" d="M103.7,187.51l.24-.27,2.94,1.6c-1.09-.67-2.17-1.35-3.23-2l-.46.44h0Z"/><path class="cls-5" d="M103.33,186.59c0,.23-.1.45-.14.65l.46-.44Z"/><path class="cls-5" d="M103.65,186.8c1.06.69,2.14,1.37,3.23,2l12.9,7.06C118.1,190,109,173.66,92.17,160c6.09,5.45,9.12,10.66,10.54,15.15a85,85,0,0,1,4.33,8.53S105.72,184.87,103.65,186.8Z"/><path class="cls-5" d="M103.33,186.59l.32.21c2.07-1.93,3.39-3.14,3.39-3.14a85,85,0,0,0-4.33-8.53A22.23,22.23,0,0,1,103.33,186.59Z"/><path class="cls-5" d="M181.85,199.51c0,.06,0,.12-.08.19l.51.55.06-.13C182.17,199.92,182,199.72,181.85,199.51Z"/><path class="cls-5" d="M181.85,199.5c0,.07,0,.13-.08.19h0c0-.07,0-.13.08-.19Z"/><path class="cls-5" d="M181.85,199.51c4.31-10.69,11.62-29.32,14.84-49.53-2.33,14.5-9.26,34.89-14.84,49.52Z"/><path class="cls-5" d="M58.53,207.29c5.39-1.26,18,.72,21.64,3.48C75.55,203.81,63,205,58.53,207.29Z"/><path class="cls-3" d="M113.89,253.61a51.79,51.79,0,0,1-4.93,4.62l4.43,2.94s.51,3.76,1.16,7.41l3.21-14.1Z"/><path class="cls-3" d="M113.89,253.61l-.5-.11L109,258.23A51.79,51.79,0,0,0,113.89,253.61Z"/><path class="cls-3" d="M115.1,271.5a5.23,5.23,0,0,0,1.18-.48c-.45-.07-.88-.17-1.32-.24C115,271,115.05,271.26,115.1,271.5Z"/><path class="cls-3" d="M146.19,262.38l-8-3.28-.77-.92c-3.63-1.06-7.58-2.35-11.44-3.87l-6.12.65-2.13-.48-3.21,14.1c.13.75.27,1.49.41,2.2.44.07.87.17,1.32.24A105.21,105.21,0,0,0,131,260.54C138.77,266.48,143.26,265,146.19,262.38Z"/><path class="cls-3" d="M126,254.31c3.86,1.52,7.81,2.81,11.44,3.87l-3.91-4.68Z"/><path class="cls-5" d="M160.25,225.65a2.53,2.53,0,1,0,2.27,2.52A2.41,2.41,0,0,0,160.25,225.65Z"/><path class="cls-5" d="M174.88,111l-.4-.2.4.21Z"/><path class="cls-5" d="M174.45,112.64l2,1.07c-1-1.72-1.58-2.69-1.58-2.69l-.4-.21-1.43-.73Z"/><path class="cls-5" d="M184.63,141.47l-11.58,3.91s4.54,2.3,7.74,3.45c.14-.32.28-.64.43-1L176,145.38s4.33-1.28,7.64-2.2c.65-1.14,1.32-2.25,2-3.32-1.62-11.32-6.62-21.49-9.2-26.15l-2-1.07C178.92,120.93,183.81,131.37,184.63,141.47Z"/><path class="cls-5" d="M165.47,205.29l.19,2.14c3.08-7.19,6.13-15.23,8.86-23.42-.13-1.06-.23-2.18-.28-3.34C171.32,190.06,168.16,198.56,165.47,205.29Z"/><path class="cls-5" d="M117.35,161.73l10.22-11.07L112.63,153s-12.07-26.65-16.35-34.66l-1.37,1.5,16.26,35,12.4-1.88-8.11,8.8s18.19,25.67,32.18,45l0-2Z"/><path class="cls-5" d="M181.22,147.87c-.15.32-.29.64-.43,1l1,.33a224.76,224.76,0,0,1-7.53,31.51c0,1.16.15,2.28.28,3.34,4.09-12.22,7.45-24.73,9-35Z"/><path class="cls-5" d="M185.66,139.86c-.71,1.07-1.38,2.18-2,3.32l2.35-.62C185.9,141.65,185.78,140.75,185.66,139.86Z"/><path class="cls-5" d="M165.24,205.85l.21,2.09.21-.51-.19-2.14Z"/><path class="cls-5" d="M147.8,205l-.18-.26,0,2c.06.07.11.15.16.22Z"/><path class="cls-5" d="M147.8,205v2c4.3,5.93,8.2,11.25,11,15,2.12-4,4.37-8.77,6.62-14l-.21-2.09c-3.66,9.07-6.41,14.76-6.41,14.76Z"/></g></g></svg>