<svg xmlns="http://www.w3.org/2000/svg" viewBox="0 0 1185.12 219.02"><defs><style>.cls-1{fill:#264b57;}.cls-2{fill:#9bd5e5;}.cls-2,.cls-3,.cls-5,.cls-6,.cls-7{fill-rule:evenodd;}.cls-3,.cls-8{fill:#9e2b7a;}.cls-4,.cls-6{fill:#6ac1b6;}.cls-5{fill:#f7a750;}.cls-7{fill:#fff;}</style></defs><title>controlpanel</title><g id="Layer_2" data-name="Layer 2"><g id="Layer_1-2" data-name="Layer 1"><path class="cls-1" d="M70,0H1115.12a70,70,0,0,1,70,70V219a0,0,0,0,1,0,0H0a0,0,0,0,1,0,0V70A70,70,0,0,1,70,0Z"/><path class="cls-2" d="M195.58,91.07V69.78c0-33.94-79.83-33.94-79.83,0V91.07Z"/><path class="cls-3" d="M151.79,76.31a10,10,0,1,1-6.44,12.58A10,10,0,0,1,151.79,76.31Z"/><path class="cls-3" d="M149.84,84.14,155,78.85,138,62.22a3.72,3.72,0,0,0-5.24.05h0a3.71,3.71,0,0,0,.06,5.23Z"/><path class="cls-4" d="M190.26,85.74v-16c0-9.33-8.6-15.48-19.6-18.32a60.55,60.55,0,0,0-15-1.83v0a60.3,60.3,0,0,0-15,1.81c-11,2.84-19.59,9-19.59,18.32v16Zm10.64-16V96.39H110.43V69.78c0-15.11,12.1-24.59,27.58-28.59A71.42,71.42,0,0,1,155.66,39v0a71.26,71.26,0,0,1,17.66,2.17C188.8,45.19,200.9,54.67,200.9,69.78Z"/><path class="cls-2" d="M196.88,172.09V150.8c0-33.94-79.82-33.94-79.82,0v21.29Z"/><path class="cls-5" d="M162.67,160.71a10,10,0,1,1-13.15-5.18A10,10,0,0,1,162.67,160.71Z"/><path class="cls-5" d="M154.68,159.53l5.77,4.64,14.9-18.54a3.72,3.72,0,0,0-.57-5.2h0a3.71,3.71,0,0,0-5.2.57Z"/><path class="cls-4" d="M191.56,166.77v-16c0-9.33-8.59-15.49-19.59-18.33a61,61,0,0,0-15-1.83v0a60.77,60.77,0,0,0-15,1.8c-11,2.85-19.6,9-19.6,18.33v16Zm10.64-16v26.61H111.74V150.8c0-15.11,12.09-24.6,27.57-28.59A71.08,71.08,0,0,1,157,120v0a70.71,70.71,0,0,1,17.65,2.16C190.11,126.2,202.2,135.69,202.2,150.8Z"/><path class="cls-6" d="M963.55,75.2A17.19,17.19,0,1,0,946.36,58,17.23,17.23,0,0,0,963.55,75.2Z"/><path class="cls-3" d="M963.55,70.31A12.3,12.3,0,1,0,951.26,58,12.32,12.32,0,0,0,963.55,70.31Z"/><path class="cls-7" d="M960.19,59.83a4.69,4.69,0,1,0-4.69-4.69A4.69,4.69,0,0,0,960.19,59.83Z"/><path class="cls-6" d="M963.55,127.13a17.19,17.19,0,1,0-17.19-17.19A17.22,17.22,0,0,0,963.55,127.13Z"/><path class="cls-3" d="M963.55,122.23a12.29,12.29,0,1,0-12.29-12.29A12.32,12.32,0,0,0,963.55,122.23Z"/><path class="cls-7" d="M960.19,111.76a4.69,4.69,0,1,0-4.69-4.69A4.69,4.69,0,0,0,960.19,111.76Z"/><path class="cls-6" d="M1010.57,75.2A17.19,17.19,0,1,0,993.38,58,17.22,17.22,0,0,0,1010.57,75.2Z"/><path class="cls-3" d="M1010.57,70.3A12.29,12.29,0,1,0,998.28,58,12.31,12.31,0,0,0,1010.57,70.3Z"/><path class="cls-7" d="M1007.21,59.83a4.69,4.69,0,1,0-4.69-4.69A4.7,4.7,0,0,0,1007.21,59.83Z"/><path class="cls-6" d="M1010.57,127.13a17.19,17.19,0,1,0-17.19-17.19A17.22,17.22,0,0,0,1010.57,127.13Z"/><path class="cls-5" d="M1010.57,122.23a12.29,12.29,0,1,0-12.29-12.29A12.31,12.31,0,0,0,1010.57,122.23Z"/><path class="cls-7" d="M1007.21,111.76a4.69,4.69,0,1,0-4.69-4.69A4.7,4.7,0,0,0,1007.21,111.76Z"/><path class="cls-6" d="M1057.59,75.2A17.19,17.19,0,1,0,1040.41,58,17.23,17.23,0,0,0,1057.59,75.2Z"/><path class="cls-5" d="M1057.59,70.3A12.29,12.29,0,1,0,1045.3,58,12.31,12.31,0,0,0,1057.59,70.3Z"/><path class="cls-7" d="M1054.24,59.83a4.69,4.69,0,1,0-4.69-4.69A4.69,4.69,0,0,0,1054.24,59.83Z"/><path class="cls-6" d="M1057.59,127.13a17.19,17.19,0,1,0-17.18-17.19A17.22,17.22,0,0,0,1057.59,127.13Z"/><path class="cls-3" d="M1057.59,122.23a12.29,12.29,0,1,0-12.29-12.29A12.31,12.31,0,0,0,1057.59,122.23Z"/><path class="cls-7" d="M1054.24,111.76a4.69,4.69,0,1,0-4.69-4.69A4.69,4.69,0,0,0,1054.24,111.76Z"/><path class="cls-6" d="M1103.34,75.2A17.19,17.19,0,1,0,1086.16,58,17.23,17.23,0,0,0,1103.34,75.2Z"/><path class="cls-5" d="M1103.34,70.3A12.29,12.29,0,1,0,1091.05,58,12.31,12.31,0,0,0,1103.34,70.3Z"/><path class="cls-7" d="M1100,59.83a4.69,4.69,0,1,0-4.68-4.69A4.7,4.7,0,0,0,1100,59.83Z"/><path class="cls-6" d="M1103.34,127.13a17.19,17.19,0,1,0-17.18-17.19A17.22,17.22,0,0,0,1103.34,127.13Z"/><circle class="cls-8" cx="1103.34" cy="109.94" r="12.29"/><path class="cls-7" d="M1100,111.76a4.69,4.69,0,1,0-4.68-4.69A4.7,4.7,0,0,0,1100,111.76Z"/><path class="cls-6" d="M963.55,181a17.18,17.18,0,1,0-17.19-17.19A17.22,17.22,0,0,0,963.55,181Z"/><path class="cls-3" d="M963.55,176.08a12.29,12.29,0,1,0-12.29-12.3A12.32,12.32,0,0,0,963.55,176.08Z"/><path class="cls-7" d="M960.19,165.6a4.69,4.69,0,1,0-4.69-4.68A4.69,4.69,0,0,0,960.19,165.6Z"/><path class="cls-6" d="M1010.57,181a17.18,17.18,0,1,0-17.19-17.19A17.22,17.22,0,0,0,1010.57,181Z"/><path class="cls-5" d="M1010.57,176.08a12.29,12.29,0,1,0-12.29-12.3A12.31,12.31,0,0,0,1010.57,176.08Z"/><path class="cls-7" d="M1007.21,165.6a4.69,4.69,0,1,0-4.69-4.68A4.69,4.69,0,0,0,1007.21,165.6Z"/><path class="cls-6" d="M1057.59,181a17.18,17.18,0,1,0-17.18-17.19A17.22,17.22,0,0,0,1057.59,181Z"/><path class="cls-3" d="M1057.59,176.08a12.29,12.29,0,1,0-12.29-12.3A12.31,12.31,0,0,0,1057.59,176.08Z"/><path class="cls-7" d="M1054.24,165.6a4.69,4.69,0,1,0-4.69-4.68A4.69,4.69,0,0,0,1054.24,165.6Z"/><path class="cls-6" d="M1103.34,181a17.18,17.18,0,1,0-17.18-17.19A17.22,17.22,0,0,0,1103.34,181Z"/><path class="cls-5" d="M1103.34,176.08a12.29,12.29,0,1,0-12.29-12.3A12.31,12.31,0,0,0,1103.34,176.08Z"/><path class="cls-7" d="M1100,165.61a4.69,4.69,0,1,0-4.68-4.69A4.7,4.7,0,0,0,1100,165.61Z"/></g></g></svg>