<svg xmlns="http://www.w3.org/2000/svg" viewBox="0 0 553.88 272.52"><defs><style>.cls-1{fill:#fff;}.cls-2{fill:#595a5c;}.cls-3{fill:#e72265;}.cls-4{fill:#d8e1eb;}.cls-5{fill:#efb894;}.cls-6{fill:#8a5954;}.cls-7{fill:#97a8bd;}.cls-8{fill:#543633;}.cls-9{fill:#efa588;}.cls-10{fill:#231f20;}.cls-11{fill:#d4826c;}.cls-12{fill:#b36d5b;}.cls-13{fill:#a1635c;}.cls-14{fill:none;}.cls-15{fill:#15161f;}.cls-16{fill:#252636;}.cls-17{fill:#b0232c;}.cls-18{fill:#f33;}</style></defs><title>pursuitlogo1_1</title><g id="Layer_2" data-name="Layer 2"><g id="Layer_1-2" data-name="Layer 1"><path class="cls-1" d="M70.05,150.9a8,8,0,0,1-4.3-1.26L56.9,144a8,8,0,0,1-3.55-5.17l-.76-3.8c-.19-.74-.35-1.54-.48-2.39,0,0,0-.06,0-.08-.17-1.1-.24-1.94-.25-2.1a8,8,0,0,1,3.23-7.08c.68-.5,1.92-1.41,14.66-7l.33-.48a8,8,0,0,1,5.36-3.42,8.91,8.91,0,0,1,1.26-.1,8,8,0,0,1,4.9,1.67l3.09,2.39a8,8,0,0,1,1.82,10.68l-.25.39c0,1.07-.12,2.46-.21,4.32s-.19,3.56-.23,4.67a8,8,0,0,1-2.62,5.6l-2.74,2.48a7.88,7.88,0,0,1-1.84,1.25A8,8,0,0,1,77.49,147l-.26.22a9.4,9.4,0,0,1-.74.66l-1.16,1A8,8,0,0,1,70.05,150.9Z"/><path class="cls-1" d="M75.08,122.74s-13.92,6.1-15.26,7.08c0,0,.06.68.19,1.55h0v0a17.41,17.41,0,0,0,.38,1.85l.81,4,8.85,5.64,1.4-1.23a.76.76,0,0,0,.25-.22l.51-.44-1.91-2.72,2.35-1.68,2.43,2,2.74-2.49c.12-2.95.56-10.59.49-10.8a18.11,18.11,0,0,1,1.47-2.6l-3.09-2.39Z"/><path class="cls-1" d="M36.45,272.52c-5.23,0-11.13-.2-17.53-.59a8.35,8.35,0,0,1-7.3-5.23c-1.26-3.15-.59-6,1.47-9.23a6.6,6.6,0,0,1,0-.77A62.88,62.88,0,0,1,14.32,249,8,8,0,0,1,16,245.49a20.27,20.27,0,0,1,7.79-5.36c.28-.31.59-.67.88-1l.21-1.21a8,8,0,0,1,3.7-5.45l4-2.45c.2-.16.4-.31.61-.45,4.76-4.75,14.28-16.68,20.69-24.71,4.7-5.88,7.21-9,8.57-10.46,2.92-3.11,6.9-4.69,11.51-6.51A60.71,60.71,0,0,0,86.07,182c5.93-4,15.55-23.7,21.81-36.79a14.44,14.44,0,0,1-6.66-6.3,8,8,0,0,1,6.15-11.36c2.38-.39,13.62-3.48,19.33-7.26a27.82,27.82,0,0,0,2.92-5.31l-.1-.34c-1.33-4.26-4.23-9.43-8.17-14.59-.19-.23-.38-.44-.55-.63L112.7,99l-7.52.14L88.33,124.29c-.68,1-1.32,2-1.81,2.77a8,8,0,0,1-5.47,3.58,7.68,7.68,0,0,1-1.27.1,8,8,0,0,1-5-1.79c-1-.81-2.16-1.72-2.5-1.95A8,8,0,0,1,69,118.22c.08-.29.16-.6.23-.91.17-4.5.66-17,1-24,.1-1.73.17-3.58.24-5.47.29-8.14.6-16.55,3-22.21A8,8,0,0,1,78,61.23c9.48-3.58,37.17-8.35,54-11a8.18,8.18,0,0,1,2.65-.54c-.34-1.13-.73-2.25-1.16-3.34a29.22,29.22,0,0,1-4.74-2A12.16,12.16,0,0,1,122.28,36a29.52,29.52,0,0,1-3.72.24c-11.31,0-18.93-6.66-19.9-17.39a8,8,0,0,1,5.08-8.18,7.87,7.87,0,0,1,2.89-.54,8,8,0,0,1,5.63,2.31,9,9,0,0,0,1-1.13c.06-.09.14-.2.22-.33,1.85-2.72,7.48-11,22.48-11,1.44,0,2.95.08,4.5.23,9.74,1,14.83,5,17.46,8.66a17.79,17.79,0,0,1,3.69,1.24,8,8,0,0,1,2.19,1.56c.14.15.29.31.45.5.51.08,1,.16,1.55.26a8.07,8.07,0,0,1,2.36.82,8.07,8.07,0,0,1,2.58-.43,7.8,7.8,0,0,1,2.72.48c6.12,2.21,11.09,7.93,11.81,13.61a11.73,11.73,0,0,1,0,2.71A21.9,21.9,0,0,1,188,51.74a17.89,17.89,0,0,1-3.94,5.7c.34.31.6.56.8.76a24.8,24.8,0,0,1,5.41,9c1.58,1.44,3,2.88,4.36,4.29,3.63,3.53,7.79,7.65,11.6,11.59a29,29,0,0,0,1.91-12.21c0-.25-.08-1.25-.08-1.25,0-.35-.05-.69-.08-1a11.32,11.32,0,0,1-5.85-2.73h-1.59a8,8,0,0,1-6.81-3.81l0-.08A8,8,0,0,1,190,54.76s.37-5.8.43-6.82c.05-2.33.9-4.42,4.81-8.4,3-3.09,6-4.94,8.91-5.67a8.23,8.23,0,0,1,1.9-.23,8,8,0,0,1,6.75,3.7,35.26,35.26,0,0,0,8.9,10l1.11.9a8,8,0,0,1,2.87,5.38,64.54,64.54,0,0,0,1.9,8.41l.56,2a7.51,7.51,0,0,1,.58,1.54c.31,1.18.67,2.46,1,3.83,3.62,12.82,9.67,34.27-2.66,60a8.11,8.11,0,0,1-2.94,3.3,7.89,7.89,0,0,1,3.49,5.8c.76,6.13-3.75,30.64-21.61,65.18a7.87,7.87,0,0,1,.14,1l.55,7.45c4.25-.46,5.86-1.76,6.19-2.07a8,8,0,0,1,6.23-3.8l.59,0a8,8,0,0,1,6.6,3.47l1,1.42a8,8,0,0,1,1.08,6.78c-3.22,11-17.36,19-33.64,19l-1.24,0-.48,0a7.88,7.88,0,0,1-1.61.29c-.71,0-1.48.08-2.26.08-4.62,0-11.11-.88-15.74-5.07a8,8,0,0,1-1.1-10.66l.63-.85c.67-.92,1.47-2,2.3-3.18a58.38,58.38,0,0,0,3.61-5.68c-.08-.39-.18-.82-.28-1.3a8,8,0,0,1,2-7.22l2.05-2.12c.91-2.14,6.7-16.62,6.88-40.46l-.39.07c-17.2,4.4-34.84,8.66-45.54,8.66h-1.07c-25.33,23.66-53.85,45.43-72.94,60-10.87,8.29-20.28,15.47-23.16,18.49a36.15,36.15,0,0,0-3.89,6q2.24.5,5.62,1.07a7.63,7.63,0,0,1,2.46.84l2,1.06a8,8,0,0,1-2.55,15A98.2,98.2,0,0,1,36.45,272.52Zm140.1-143.69c10.8,0,20.7.24,28.26.6a142,142,0,0,1-21.31-11.7c-.91,1.56-1.86,3.11-2.83,4.64C179.3,124.65,177.92,126.8,176.55,128.83Z"/><path class="cls-1" d="M202.33,220.31a21.22,21.22,0,0,1-3.66-.4c.21-.34.4-.68.57-1l-1-13.61-1.87-.32c20.14-37.3,23.82-62,23.38-65.45-.28-2.21-32-3-59.89-2.58,5.34-5.34,10.28-12.59,14-18.79A140.72,140.72,0,0,0,181,105.57c6.11,6.56,30.35,19.65,38.93,20.41,12.31-25.67,4.14-46.52,1.08-58.34l-.15,0c-.32-1.16-.63-2.3-.93-3.41a75.26,75.26,0,0,1-2.18-9.84,44.62,44.62,0,0,1-11.67-12.79c-3.44.85-7.62,6.33-7.62,6.54s-.45,7.1-.45,7.1l1.31.58,1.26,2.06h4.35A15.64,15.64,0,0,1,207,59.49a3.65,3.65,0,0,0,3.93,1.13,9.83,9.83,0,0,1,3.09,0l1.69,4.64c.16,1.31.27,2.55.36,3.73,0,.18,0,.36,0,.54,0,.34,0,.67.06,1,.69,14.18-5.74,19.59-6.5,28.32-4.16-5.39-14.31-15.48-20.72-21.71a71.56,71.56,0,0,0-5.6-5.38h0a18.49,18.49,0,0,0-4.17-8c-1-1.08-7.09-5.82-7.09-5.82l2.6,6.31h0l-3.79-9.2c4.47-.62,8.13-2.69,9.82-6.54,3.09-7-.38-13.55-4.85-17.31,3.84-2.62-.36-8.66-5.13-10.38,1,1.48,1.8,3.88-1.25,5.58q-.41-.51-.93-1.08a3.31,3.31,0,0,0,.14-.41l.1-.51h-.52l-1.8,0c.52-.68-.25-1.83-2.3-3l.2-1.1c-1.53-.27-3.18-.52-4.94-.68l-.9-.54.45.1a7.84,7.84,0,0,0-.88-1.88,19.94,19.94,0,0,0-5.39-1.19c-.41-1.52-2.59-6.91-13-7.94-14.81-1.45-18.46,5.82-20,7.87-4.43,6.07-10,6.19-13.07,2.11,1.22,13.5,17.25,10.14,19.43,8.54.88,1,2.67,2.95,4.95,5.37-1.8,1.35-.89,3.89,1.45,5.11a17.31,17.31,0,0,0,5.38,2l2.2,2.17a48.08,48.08,0,0,1,3.24,9.83l-.19.44h0s-1.66,3.74-2.44,5.33h0l-4.59.72h-1.16l0,.18c-13,2.07-44.59,7.31-54.08,10.9-2.29,5.46-2.14,16.62-2.6,25-.44,8.06-1,23.36-1.07,24.58-.15.69-.3,1.38-.48,2,.85.56,3.09,2.39,3.09,2.39.52-.79,1.16-1.79,1.9-2.91l19.19-28.57L112.8,91l11.32.49.16.1A26.34,26.34,0,0,1,127.59,95c3.11,4.06,7.51,10.58,9.59,17.31.31,1,.58,2.08.79,3.12a34.51,34.51,0,0,1-5.65,10.66c-7.18,5.38-21.63,9-23.87,9.35,0,0,1.78,3.76,9.61,4.07h.1a6.89,6.89,0,0,0,.76,1.15c-8.09,16.73-19.3,41.8-28.38,47.93-9.28,6.27-18.73,7.54-22.21,11.26S45.42,229.13,38,236.09l-.41.18,0,.06-4.81,2.94-.55,3.2a34.3,34.3,0,0,1-3.77,4.3l-.44.37a12.58,12.58,0,0,0-5.88,3.51,55.56,55.56,0,0,0-1.07,6.61h2.44s-6.08,6.56-4.12,6.68c21.15,1.3,29.48,0,29.48,0l-2-1.06c-5.07-.85-12.93-2.24-13.59-4.77-.36-2.77,1.73-8.65,7.1-15.42,8.34-9.13,58.18-42.57,99.32-81.57,8.48,1.59,28.73-3.31,47.77-8.18,6.34-1.15,9.84-.89,10,.18,1.17,29.57-6,48.09-7.63,51.69-.32.67-.51,1-.51,1l-2.9,3s.7,3.25.93,3.83a53.23,53.23,0,0,1-5.54,9.42c-1.14,1.62-2.21,3.06-3,4.15,3.44,3.11,9.74,3.12,12.06,2.95l.78-3.06a11.63,11.63,0,0,0,2.09,2.78c13.35.34,24.84-5.8,27-13.2l-1-1.42S216.64,220.69,202.33,220.31Z"/><path class="cls-2" d="M451.44,159.32c-5.51,0-9.92-1.5-13.12-4.44-2.33-2.14-5.11-6.08-5.11-12.71,0-1.42.18-3.85,1.52-11.15l1.82-9.93a6.41,6.41,0,0,1-3.9-7.09l2.08-11.62a6.43,6.43,0,0,1,6.18-5.3l.26-1.5a6.49,6.49,0,0,1,2.54-4.09L458.4,80.74a6.43,6.43,0,0,1,10.12,6.34l-1.84,10.13a6.43,6.43,0,0,1,5.07,7.38l-2,11.62a6.44,6.44,0,0,1-6.34,5.35h-1.2l-2.32,12.51h.14a6.43,6.43,0,0,1,6.32,7.59l-2.13,11.58a6.41,6.41,0,0,1-4.91,5.11l-.78.18A32.92,32.92,0,0,1,451.44,159.32Z"/><path class="cls-2" d="M485.3,158.28a6.45,6.45,0,0,1-4.92-2.29,6.34,6.34,0,0,1-.82-1.24,6.43,6.43,0,0,1-5.74,3.53H461.21a6.43,6.43,0,0,1-6.33-7.52L466.14,85a6.44,6.44,0,0,1,6.34-5.35h12.66a6.43,6.43,0,0,1,6.33,7.52l-1.56,9.08a22.27,22.27,0,0,1,2.71-.16,16.64,16.64,0,0,1,12.92,5.72c3.06,3.5,4.61,8.07,4.61,13.59A59.62,59.62,0,0,1,509,125.1l-4.79,27.84a6.44,6.44,0,0,1-6.34,5.34Z"/><path class="cls-2" d="M525.26,159.32a23,23,0,0,1-18-8.43c-4.44-5.22-6.68-12.11-6.68-20.48a39.84,39.84,0,0,1,6.87-23A25.37,25.37,0,0,1,529.2,96.05,21.06,21.06,0,0,1,546,103.91c3.92,4.78,5.91,11.35,5.91,19.53a50.62,50.62,0,0,1-.83,9.55l-.19,1a6.14,6.14,0,0,1-.62,1.76,6.38,6.38,0,0,1-.23,4.09l-.53,1.34a30.18,30.18,0,0,1-9.66,13.32A23.86,23.86,0,0,1,525.26,159.32Z"/><rect class="cls-2" x="401" y="100.5" width="37" height="8" rx="3.5" ry="3.5"/><rect class="cls-2" x="384" y="111.5" width="52" height="7" rx="3.5" ry="3.5"/><rect class="cls-2" x="409" y="124.5" width="29" height="7" rx="3.5" ry="3.5"/><rect class="cls-2" x="362" y="111.5" width="17" height="7" rx="3.5" ry="3.5"/><path class="cls-1" d="M453.44,157.32c-5.51,0-9.92-1.5-13.12-4.44-2.33-2.14-5.11-6.08-5.11-12.71,0-1.42.18-3.85,1.52-11.15l1.82-9.93a6.41,6.41,0,0,1-3.9-7.09l2.08-11.62a6.43,6.43,0,0,1,6.18-5.3l.26-1.5a6.49,6.49,0,0,1,2.54-4.09L460.4,78.74a6.43,6.43,0,0,1,10.12,6.34l-1.84,10.13a6.43,6.43,0,0,1,5.07,7.38l-2,11.62a6.44,6.44,0,0,1-6.34,5.35h-1.2l-2.32,12.51h.14a6.43,6.43,0,0,1,6.32,7.59l-2.13,11.58a6.41,6.41,0,0,1-4.91,5.11l-.78.18A32.92,32.92,0,0,1,453.44,157.32Z"/><path class="cls-1" d="M487.3,156.28a6.45,6.45,0,0,1-4.92-2.29,6.34,6.34,0,0,1-.82-1.24,6.43,6.43,0,0,1-5.74,3.53H463.21a6.43,6.43,0,0,1-6.33-7.52L468.14,83a6.44,6.44,0,0,1,6.34-5.35h12.66a6.43,6.43,0,0,1,6.33,7.52l-1.56,9.08a22.27,22.27,0,0,1,2.71-.16,16.64,16.64,0,0,1,12.92,5.72c3.06,3.5,4.61,8.07,4.61,13.59A59.62,59.62,0,0,1,511,123.1l-4.79,27.84a6.44,6.44,0,0,1-6.34,5.34Z"/><path class="cls-1" d="M527.26,157.32a23,23,0,0,1-18-8.43c-4.44-5.22-6.68-12.11-6.68-20.48a39.84,39.84,0,0,1,6.87-23A25.37,25.37,0,0,1,531.2,94.05,21.06,21.06,0,0,1,548,101.91c3.92,4.78,5.91,11.35,5.91,19.53a50.62,50.62,0,0,1-.83,9.55l-.19,1a6.14,6.14,0,0,1-.62,1.76,6.38,6.38,0,0,1-.23,4.09l-.53,1.34a30.18,30.18,0,0,1-9.66,13.32A23.86,23.86,0,0,1,527.26,157.32Z"/><rect class="cls-1" x="403" y="98.5" width="37" height="8" rx="3.5" ry="3.5"/><rect class="cls-1" x="386" y="109.5" width="52" height="7" rx="3.5" ry="3.5"/><rect class="cls-1" x="411" y="122.5" width="29" height="7" rx="3.5" ry="3.5"/><rect class="cls-1" x="364" y="109.5" width="17" height="7" rx="3.5" ry="3.5"/><path class="cls-2" d="M132.29,257.53a8,8,0,0,1-7.88-9.35l14.86-86.89a8,8,0,0,1,7.88-6.65h29.38c7,0,12.55,1.14,17,3.49a27.31,27.31,0,0,1,11.37,11.5,34.74,34.74,0,0,1,3.87,16.71,47.57,47.57,0,0,1-3.92,19.28c-2.78,6.32-6.51,11.23-11.08,14.59a36.85,36.85,0,0,1-15.09,6.43,79.37,79.37,0,0,1-13.1.8l-4,23.43a8,8,0,0,1-7.89,6.66Z"/><path class="cls-2" d="M200.76,186.34a26.93,26.93,0,0,0-2.91-12.91,19.47,19.47,0,0,0-8.06-8.23h0c-3.26-1.72-7.6-2.56-13.26-2.56H147.15l-14.86,86.89h21.38l5.15-30.08h4.9c6.74,0,11-.21,13.45-.67a29,29,0,0,0,11.85-5c3.43-2.52,6.29-6.35,8.5-11.37A39.63,39.63,0,0,0,200.76,186.34ZM165,183.61h5.93c5.67,0,7.05.56,7.15.61.42.23,1.39.78,1.39,3.57a10.81,10.81,0,0,1-1.69,6.12,8.17,8.17,0,0,1-4,3.37c-1.06.39-3.92,1-11.3,1.09Z"/><path class="cls-2" d="M224.28,258.87c-10.39,0-19.24-3.53-25.59-10.22s-9.47-15.33-9.47-25.94c0-3.21.63-8.32,2.06-16.57l7.58-44.83a8,8,0,0,1,7.88-6.67h21.44a8,8,0,0,1,7.88,9.34l-9.42,55.4a89.5,89.5,0,0,0,2.5-11.58s8.3-46.56,8.3-46.56a8,8,0,0,1,7.87-6.6h21.41a8,8,0,0,1,7.87,9.41l-8.5,47.75c-1.64,9.67-3.42,16.83-5.44,21.82-3.29,8.11-8,14.38-14,18.64C240.47,256.65,233,258.87,224.28,258.87Z"/><path class="cls-2" d="M266.72,162.64H245.31L237,209.1v0c-1.51,8.94-2.69,12.81-3.43,14.48a8.46,8.46,0,0,1-8.67,5.7,6.75,6.75,0,0,1-5-1.72,6.86,6.86,0,0,1-1.72-5.08,15.48,15.48,0,0,1,.17-2.07l9.83-57.8H206.74l-7.58,44.86c-1.31,7.58-1.94,12.55-1.94,15.21,0,8.49,2.44,15.36,7.27,20.43s11.53,7.73,19.79,7.73c7,0,12.94-1.73,17.74-5.13s8.51-8.45,11.21-15.12c1.8-4.45,3.43-11.07,5-20.22Z"/><path class="cls-2" d="M302.87,257.53a8,8,0,0,1-7.75-6l-.77-3c-.26-1-1.18-4.14-4.47-14.13L287,250.88a8,8,0,0,1-7.89,6.65H257.77a8,8,0,0,1-7.88-9.35l14.86-86.89a8,8,0,0,1,7.89-6.65h32.12c7.37,0,13.11,1.15,17.54,3.51A27.43,27.43,0,0,1,333.66,170a37.26,37.26,0,0,1,3.81,17.4c0,9.78-2.63,18-7.82,24.37a31.77,31.77,0,0,1-6.74,6.21c2.74,6.26,5.69,14.28,8.79,23.92l1.68,5.22a8,8,0,0,1-7.61,10.46Z"/><path class="cls-2" d="M314.46,218.68q-1.11-2.33-2.23-4.25a24.75,24.75,0,0,0,11.21-7.76c4-4.92,6-11.42,6-19.32a29.37,29.37,0,0,0-2.9-13.69,19.56,19.56,0,0,0-8-8.45h0c-3.24-1.73-7.74-2.57-13.77-2.57H272.64l-14.87,86.89h21.38l5.62-32.67h2.07a10.21,10.21,0,0,1,3.67.39,5.27,5.27,0,0,1,1.68,1.71c.84,1.21,2.25,3.87,4.22,9.69,3.23,9.73,5.14,15.74,5.69,17.87l.77,3h22.9l-1.69-5.23A226.06,226.06,0,0,0,314.46,218.68Zm-24-34.85h11.24c3.8,0,5,.45,5.2.54l.06,0c.37.25,1.23.85,1.23,3.22a8.86,8.86,0,0,1-1.63,5.2,8.07,8.07,0,0,1-3.92,3.17c-1.08.38-4.09,1-12.19,1h-2.26Z"/><path class="cls-2" d="M354.74,258.87a40.3,40.3,0,0,1-21.07-5.43,30.73,30.73,0,0,1-13.49-16.11,48.65,48.65,0,0,1-2.78-17.64l.09-3.66a8,8,0,0,1,7.49-7.8l5.91-.38a31.65,31.65,0,0,1-3-5.57,35.52,35.52,0,0,1-2.63-13.84c0-10.26,3.24-18.76,9.63-25.26s15-9.88,25.45-9.88,19,3.23,25.63,9.62,10.17,14.93,10.78,25.59l.23,4A8,8,0,0,1,389.4,201l-3.49.18a30.29,30.29,0,0,1,3.93,6.83,35,35,0,0,1,2.57,13.57c0,10.71-3.55,19.7-10.55,26.72S365.72,258.87,354.74,258.87Z"/><path class="cls-2" d="M376.7,202.93c-2.31-2-6.62-4.71-13.14-8.14-5.71-3-7.76-4.68-8.56-5.45a3.49,3.49,0,0,1-1.1-2.83,3.77,3.77,0,0,1,1.17-3.13h0c.89-.79,2.73-1.22,5.19-1.22,3.69,0,7.19,1,7.77,8l.32,3.86L389,193l-.23-4c-.49-8.59-3.29-15.41-8.34-20.29s-11.83-7.37-20.08-7.37-14.86,2.52-19.75,7.49-7.33,11.56-7.33,19.65a27.72,27.72,0,0,0,2,10.75,22.83,22.83,0,0,0,5.81,8.23c2.32,2.08,6.67,4.81,13.31,8.33,6.39,3.39,7.77,4.84,7.95,5.06a4.15,4.15,0,0,1,.9,2.76,4.89,4.89,0,0,1-1.72,4c-1.29,1.12-3.57,1.71-6.6,1.71a12.33,12.33,0,0,1-5.64-1,4.54,4.54,0,0,1-2.16-2.07c-.25-.52-.86-2.28-1.07-7.27l-.17-4.08-20.38,1.3-.09,3.67a40.47,40.47,0,0,0,2.31,14.73,22.86,22.86,0,0,0,10.09,12,32.3,32.3,0,0,0,16.94,4.29c8.78,0,16-2.77,21.45-8.24s8.22-12.56,8.22-21.08a27.27,27.27,0,0,0-2-10.49A22.15,22.15,0,0,0,376.7,202.93Z"/><path class="cls-2" d="M415,258.87c-10.39,0-19.24-3.53-25.59-10.22s-9.46-15.33-9.46-25.94c0-3.21.63-8.32,2.05-16.57l7.58-44.83a8,8,0,0,1,7.89-6.67h21.43a8,8,0,0,1,7.89,9.34l-9.42,55.4a89.5,89.5,0,0,0,2.5-11.58l8.29-46.56a8,8,0,0,1,7.88-6.6h21.4a8,8,0,0,1,7.88,9.41l-8.51,47.75c-1.64,9.67-3.42,16.83-5.44,21.82-3.28,8.11-8,14.38-14,18.64C431.17,256.65,423.64,258.87,415,258.87Z"/><path class="cls-2" d="M457.41,162.64H436l-8.28,46.49c-1.51,8.94-2.7,12.81-3.43,14.48a8.46,8.46,0,0,1-8.67,5.7,6.73,6.73,0,0,1-5-1.72,6.86,6.86,0,0,1-1.72-5.08,15.29,15.29,0,0,1,.16-2.07l9.83-57.8H397.44l-7.58,44.86c-1.31,7.58-1.94,12.55-1.94,15.21,0,8.49,2.44,15.36,7.26,20.43s11.53,7.73,19.79,7.73c7,0,12.95-1.73,17.74-5.13s8.52-8.45,11.22-15.12c1.8-4.45,3.43-11.07,5-20.22Z"/><path class="cls-2" d="M488.07,257.53a8,8,0,0,1-7.89-9.36l9.71-56.34h-3.38L476,250.93a8,8,0,0,1-7.88,6.6h-21.4a8,8,0,0,1-7.88-9.41l15.46-86.88a8,8,0,0,1,7.87-6.6h80.91A8,8,0,0,1,551,164l-3.64,21.19a8,8,0,0,1-7.88,6.65H527.51l-10.17,59a8,8,0,0,1-7.89,6.65Z"/><polygon class="cls-2" points="483.58 162.64 483.58 162.64 462.18 162.64 446.72 249.53 468.12 249.53 483.53 162.94 479.95 183.83 499.38 183.83 488.07 249.53 509.45 249.53 520.77 183.83 539.45 183.83 543.08 162.64 483.58 162.64"/><rect class="cls-2" x="64" y="164.5" width="78" height="10" rx="5" ry="5"/><rect class="cls-2" x="90" y="181.5" width="50" height="10" rx="5" ry="5"/><rect class="cls-2" x="56" y="184.5" width="24" height="8" rx="4" ry="4"/><rect class="cls-2" x="38" y="201.5" width="97" height="8" rx="4" ry="4"/><rect class="cls-2" x="82" y="217.5" width="50" height="6" rx="3" ry="3"/><rect class="cls-2" x="44" y="234.5" width="88" height="7" rx="3.5" ry="3.5"/><rect class="cls-2" x="96" y="247.5" width="32" height="8" rx="4" ry="4"/><rect class="cls-2" x="63" y="250.5" width="26" height="8" rx="4" ry="4"/><rect class="cls-2" y="201.5" width="31" height="9" rx="4.5" ry="4.5"/><path class="cls-1" d="M132.29,254.53a8,8,0,0,1-7.88-9.35l14.86-86.89a8,8,0,0,1,7.88-6.65h29.38c7,0,12.55,1.14,17,3.49a27.31,27.31,0,0,1,11.37,11.5,34.74,34.74,0,0,1,3.87,16.71,47.57,47.57,0,0,1-3.92,19.28c-2.78,6.32-6.51,11.23-11.08,14.59a36.85,36.85,0,0,1-15.09,6.43,79.37,79.37,0,0,1-13.1.8l-4,23.43a8,8,0,0,1-7.89,6.66Z"/><path class="cls-1" d="M200.76,183.34a26.93,26.93,0,0,0-2.91-12.91,19.47,19.47,0,0,0-8.06-8.23h0c-3.26-1.72-7.6-2.56-13.26-2.56H147.15l-14.86,86.89h21.38l5.15-30.08h4.9c6.74,0,11-.21,13.45-.67a29,29,0,0,0,11.85-5c3.43-2.52,6.29-6.35,8.5-11.37A39.63,39.63,0,0,0,200.76,183.34ZM165,180.61h5.93c5.67,0,7.05.56,7.15.61.42.23,1.39.78,1.39,3.57a10.81,10.81,0,0,1-1.69,6.12,8.17,8.17,0,0,1-4,3.37c-1.06.39-3.92,1-11.3,1.09Z"/><path class="cls-1" d="M224.28,255.87c-10.39,0-19.24-3.53-25.59-10.22s-9.47-15.33-9.47-25.94c0-3.21.63-8.32,2.06-16.57l7.58-44.83a8,8,0,0,1,7.88-6.67h21.44a8,8,0,0,1,7.88,9.34l-9.42,55.4a89.5,89.5,0,0,0,2.5-11.58s8.3-46.56,8.3-46.56a8,8,0,0,1,7.87-6.6h21.41a8,8,0,0,1,7.87,9.41l-8.5,47.75c-1.64,9.67-3.42,16.83-5.44,21.82-3.29,8.11-8,14.38-14,18.64C240.47,253.65,233,255.87,224.28,255.87Z"/><path class="cls-1" d="M266.72,159.64H245.31L237,206.1v0c-1.51,8.94-2.69,12.81-3.43,14.48a8.46,8.46,0,0,1-8.67,5.7,6.75,6.75,0,0,1-5-1.72,6.86,6.86,0,0,1-1.72-5.08,15.48,15.48,0,0,1,.17-2.07l9.83-57.8H206.74l-7.58,44.86c-1.31,7.58-1.94,12.55-1.94,15.21,0,8.49,2.44,15.36,7.27,20.43s11.53,7.73,19.79,7.73c7,0,12.94-1.73,17.74-5.13s8.51-8.45,11.21-15.12c1.8-4.45,3.43-11.07,5-20.22Z"/><path class="cls-1" d="M302.87,254.53a8,8,0,0,1-7.75-6l-.77-3c-.26-1-1.18-4.14-4.47-14.13L287,247.88a8,8,0,0,1-7.89,6.65H257.77a8,8,0,0,1-7.88-9.35l14.86-86.89a8,8,0,0,1,7.89-6.65h32.12c7.37,0,13.11,1.15,17.54,3.51A27.43,27.43,0,0,1,333.66,167a37.26,37.26,0,0,1,3.81,17.4c0,9.78-2.63,18-7.82,24.37a31.77,31.77,0,0,1-6.74,6.21c2.74,6.26,5.69,14.28,8.79,23.92l1.68,5.22a8,8,0,0,1-7.61,10.46Z"/><path class="cls-1" d="M314.46,215.68q-1.11-2.33-2.23-4.25a24.75,24.75,0,0,0,11.21-7.76c4-4.92,6-11.42,6-19.32a29.37,29.37,0,0,0-2.9-13.69,19.56,19.56,0,0,0-8-8.45h0c-3.24-1.73-7.74-2.57-13.77-2.57H272.64l-14.87,86.89h21.38l5.62-32.67h2.07a10.21,10.21,0,0,1,3.67.39,5.27,5.27,0,0,1,1.68,1.71c.84,1.21,2.25,3.87,4.22,9.69,3.23,9.73,5.14,15.74,5.69,17.87l.77,3h22.9l-1.69-5.23A226.06,226.06,0,0,0,314.46,215.68Zm-24-34.85h11.24c3.8,0,5,.45,5.2.54l.06,0c.37.25,1.23.85,1.23,3.22a8.86,8.86,0,0,1-1.63,5.2,8.07,8.07,0,0,1-3.92,3.17c-1.08.38-4.09,1-12.19,1h-2.26Z"/><path class="cls-1" d="M354.74,255.87a40.3,40.3,0,0,1-21.07-5.43,30.73,30.73,0,0,1-13.49-16.11,48.65,48.65,0,0,1-2.78-17.64l.09-3.66a8,8,0,0,1,7.49-7.8l5.91-.38a31.65,31.65,0,0,1-3-5.57,35.52,35.52,0,0,1-2.63-13.84c0-10.26,3.24-18.76,9.63-25.26s15-9.88,25.45-9.88,19,3.23,25.63,9.62,10.17,14.93,10.78,25.59l.23,4A8,8,0,0,1,389.4,198l-3.49.18a30.29,30.29,0,0,1,3.93,6.83,35,35,0,0,1,2.57,13.57c0,10.71-3.55,19.7-10.55,26.72S365.72,255.87,354.74,255.87Z"/><path class="cls-1" d="M376.7,199.93c-2.31-2-6.62-4.71-13.14-8.14-5.71-3-7.76-4.68-8.56-5.45a3.49,3.49,0,0,1-1.1-2.83,3.77,3.77,0,0,1,1.17-3.13h0c.89-.79,2.73-1.22,5.19-1.22,3.69,0,7.19,1,7.77,8l.32,3.86L389,190l-.23-4c-.49-8.59-3.29-15.41-8.34-20.29s-11.83-7.37-20.08-7.37-14.86,2.52-19.75,7.49-7.33,11.56-7.33,19.65a27.72,27.72,0,0,0,2,10.75,22.83,22.83,0,0,0,5.81,8.23c2.32,2.08,6.67,4.81,13.31,8.33,6.39,3.39,7.77,4.84,7.95,5.06a4.15,4.15,0,0,1,.9,2.76,4.89,4.89,0,0,1-1.72,4c-1.29,1.12-3.57,1.71-6.6,1.71a12.33,12.33,0,0,1-5.64-1,4.54,4.54,0,0,1-2.16-2.07c-.25-.52-.86-2.28-1.07-7.27l-.17-4.08-20.38,1.3-.09,3.67a40.47,40.47,0,0,0,2.31,14.73,22.86,22.86,0,0,0,10.09,12,32.3,32.3,0,0,0,16.94,4.29c8.78,0,16-2.77,21.45-8.24s8.22-12.56,8.22-21.08a27.27,27.27,0,0,0-2-10.49A22.15,22.15,0,0,0,376.7,199.93Z"/><path class="cls-1" d="M415,255.87c-10.39,0-19.24-3.53-25.59-10.22s-9.46-15.33-9.46-25.94c0-3.21.63-8.32,2.05-16.57l7.58-44.83a8,8,0,0,1,7.89-6.67h21.43a8,8,0,0,1,7.89,9.34l-9.42,55.4a89.5,89.5,0,0,0,2.5-11.58l8.29-46.56a8,8,0,0,1,7.88-6.6h21.4a8,8,0,0,1,7.88,9.41l-8.51,47.75c-1.64,9.67-3.42,16.83-5.44,21.82-3.28,8.11-8,14.38-14,18.64C431.17,253.65,423.64,255.87,415,255.87Z"/><path class="cls-1" d="M457.41,159.64H436l-8.28,46.49c-1.51,8.94-2.7,12.81-3.43,14.48a8.46,8.46,0,0,1-8.67,5.7,6.73,6.73,0,0,1-5-1.72,6.86,6.86,0,0,1-1.72-5.08,15.29,15.29,0,0,1,.16-2.07l9.83-57.8H397.44l-7.58,44.86c-1.31,7.58-1.94,12.55-1.94,15.21,0,8.49,2.44,15.36,7.26,20.43s11.53,7.73,19.79,7.73c7,0,12.95-1.73,17.74-5.13s8.52-8.45,11.22-15.12c1.8-4.45,3.43-11.07,5-20.22Z"/><path class="cls-1" d="M488.07,254.53a8,8,0,0,1-7.89-9.36l9.71-56.34h-3.38L476,247.93a8,8,0,0,1-7.88,6.6h-21.4a8,8,0,0,1-7.88-9.41l15.46-86.88a8,8,0,0,1,7.87-6.6h80.91A8,8,0,0,1,551,161l-3.64,21.19a8,8,0,0,1-7.88,6.65H527.51l-10.17,59a8,8,0,0,1-7.89,6.65Z"/><polygon class="cls-1" points="483.58 159.64 483.58 159.64 462.18 159.64 446.72 246.53 468.12 246.53 483.53 159.94 479.95 180.83 499.38 180.83 488.07 246.53 509.45 246.53 520.77 180.83 539.45 180.83 543.08 159.64 483.58 159.64"/><rect class="cls-1" x="64" y="161.5" width="78" height="10" rx="5" ry="5"/><rect class="cls-1" x="90" y="178.5" width="50" height="10" rx="5" ry="5"/><rect class="cls-1" x="56" y="181.5" width="24" height="8" rx="4" ry="4"/><rect class="cls-1" x="38" y="198.5" width="97" height="8" rx="4" ry="4"/><rect class="cls-1" x="82" y="214.5" width="50" height="6" rx="3" ry="3"/><rect class="cls-1" x="44" y="231.5" width="88" height="7" rx="3.5" ry="3.5"/><rect class="cls-1" x="96" y="244.5" width="32" height="8" rx="4" ry="4"/><rect class="cls-1" x="63" y="247.5" width="26" height="8" rx="4" ry="4"/><rect class="cls-1" y="198.5" width="31" height="9" rx="4.5" ry="4.5"/><path class="cls-3" d="M457.06,139a3.11,3.11,0,0,1-2-.43,1.9,1.9,0,0,1-.43-1.41,57.82,57.82,0,0,1,.91-5.79l3.37-18.2h6.55l2-11.62H461l3.19-17.58L449.51,94.68l-1.19,6.83h-5.26L441,113.13h5.2l-3.12,17.05a73,73,0,0,0-1.41,10c0,3.45,1,6.13,3,8s4.93,2.74,8.77,2.74a26.23,26.23,0,0,0,5.71-.64l.78-.17,2.12-11.58-1.6.17C458,138.92,457.28,139,457.06,139Z"/><path class="cls-3" d="M494.62,100.47a16.2,16.2,0,0,0-6.68,1.45,21.11,21.11,0,0,0-4.35,2.76L487.14,84H474.48l-11.27,65.81h12.61l3.31-19.21a72.52,72.52,0,0,1,2.24-10.47,16.61,16.61,0,0,1,4.4-6.66,5.88,5.88,0,0,1,4-1.8,2.85,2.85,0,0,1,2.26.94,4.21,4.21,0,0,1,.91,2.91,45.27,45.27,0,0,1-.72,5.51l-5,28.78h12.61l4.8-27.86a55.1,55.1,0,0,0,1-8.63c0-3.92-1-7.07-3-9.36A10.28,10.28,0,0,0,494.62,100.47Z"/><path class="cls-3" d="M543,106a14.62,14.62,0,0,0-11.81-5.53,19,19,0,0,0-16.48,8.59A33.55,33.55,0,0,0,509,128.41c0,6.8,1.73,12.3,5.15,16.32a16.55,16.55,0,0,0,13.13,6.16A17.49,17.49,0,0,0,538,147.32a24,24,0,0,0,7.54-10.55l.53-1.34-11.48-2.34-.4.87c-1.73,3.83-4,5.69-6.81,5.69a5.23,5.23,0,0,1-4.24-2.3,10.58,10.58,0,0,1-1.91-6.61h25.35l.19-1a44.28,44.28,0,0,0,.71-8.32C547.45,114.79,546,109.59,543,106Zm-12.94,5.71a4.82,4.82,0,0,1,4,2c1.11,1.45,1.68,3.81,1.68,7v.05H522.47a14.31,14.31,0,0,1,2.87-6.57A6.21,6.21,0,0,1,530.07,111.71Z"/><path class="cls-3" d="M200.76,183.34a26.93,26.93,0,0,0-2.91-12.91,19.47,19.47,0,0,0-8.06-8.23h0c-3.26-1.72-7.6-2.56-13.26-2.56H147.15l-14.86,86.89h21.38l5.15-30.08h4.9c6.74,0,11-.21,13.45-.67a29,29,0,0,0,11.85-5c3.43-2.52,6.29-6.35,8.5-11.37A39.63,39.63,0,0,0,200.76,183.34ZM165,180.61h5.93c5.67,0,7.05.56,7.15.61.42.23,1.39.78,1.39,3.57a10.81,10.81,0,0,1-1.69,6.12,8.17,8.17,0,0,1-4,3.37c-1.06.39-3.92,1-11.3,1.09Z"/><path class="cls-3" d="M266.72,159.64H245.31L237,206.1v0c-1.51,8.94-2.69,12.81-3.43,14.48a8.46,8.46,0,0,1-8.67,5.7,6.75,6.75,0,0,1-5-1.72,6.86,6.86,0,0,1-1.72-5.08,15.48,15.48,0,0,1,.17-2.07l9.83-57.8H206.74l-7.58,44.86c-1.31,7.58-1.94,12.55-1.94,15.21,0,8.49,2.44,15.36,7.27,20.43s11.53,7.73,19.79,7.73c7,0,12.94-1.73,17.74-5.13s8.51-8.45,11.21-15.12c1.8-4.45,3.43-11.07,5-20.22Z"/><path class="cls-3" d="M314.46,215.68q-1.11-2.33-2.23-4.25a24.75,24.75,0,0,0,11.21-7.76c4-4.92,6-11.42,6-19.32a29.37,29.37,0,0,0-2.9-13.69,19.56,19.56,0,0,0-8-8.45h0c-3.24-1.73-7.74-2.57-13.77-2.57H272.64l-14.87,86.89h21.38l5.62-32.67h2.07a10.21,10.21,0,0,1,3.67.39,5.27,5.27,0,0,1,1.68,1.71c.84,1.21,2.25,3.87,4.22,9.69,3.23,9.73,5.14,15.74,5.69,17.87l.77,3h22.9l-1.69-5.23A226.06,226.06,0,0,0,314.46,215.68Zm-24-34.85h11.24c3.8,0,5,.45,5.2.54l.06,0c.37.25,1.23.85,1.23,3.22a8.86,8.86,0,0,1-1.63,5.2,8.07,8.07,0,0,1-3.92,3.17c-1.08.38-4.09,1-12.19,1h-2.26Z"/><path class="cls-3" d="M376.7,199.93c-2.31-2-6.62-4.71-13.14-8.14-5.71-3-7.76-4.68-8.56-5.45a3.49,3.49,0,0,1-1.1-2.83,3.77,3.77,0,0,1,1.17-3.13h0c.89-.79,2.73-1.22,5.19-1.22,3.69,0,7.19,1,7.77,8l.32,3.86L389,190l-.23-4c-.49-8.59-3.29-15.41-8.34-20.29s-11.83-7.37-20.08-7.37-14.86,2.52-19.75,7.49-7.33,11.56-7.33,19.65a27.72,27.72,0,0,0,2,10.75,22.83,22.83,0,0,0,5.81,8.23c2.32,2.08,6.67,4.81,13.31,8.33,6.39,3.39,7.77,4.84,7.95,5.06a4.15,4.15,0,0,1,.9,2.76,4.89,4.89,0,0,1-1.72,4c-1.29,1.12-3.57,1.71-6.6,1.71a12.33,12.33,0,0,1-5.64-1,4.54,4.54,0,0,1-2.16-2.07c-.25-.52-.86-2.28-1.07-7.27l-.17-4.08-20.38,1.3-.09,3.67a40.47,40.47,0,0,0,2.31,14.73,22.86,22.86,0,0,0,10.09,12,32.3,32.3,0,0,0,16.94,4.29c8.78,0,16-2.77,21.45-8.24s8.22-12.56,8.22-21.08a27.27,27.27,0,0,0-2-10.49A22.15,22.15,0,0,0,376.7,199.93Z"/><path class="cls-3" d="M457.41,159.64H436l-8.28,46.49c-1.51,8.94-2.7,12.81-3.43,14.48a8.46,8.46,0,0,1-8.67,5.7,6.73,6.73,0,0,1-5-1.72,6.86,6.86,0,0,1-1.72-5.08,15.29,15.29,0,0,1,.16-2.07l9.83-57.8H397.44l-7.58,44.86c-1.31,7.58-1.94,12.55-1.94,15.21,0,8.49,2.44,15.36,7.26,20.43s11.53,7.73,19.79,7.73c7,0,12.95-1.73,17.74-5.13s8.52-8.45,11.22-15.12c1.8-4.45,3.43-11.07,5-20.22Z"/><polygon class="cls-3" points="483.58 159.64 483.58 159.64 462.18 159.64 446.72 246.53 468.12 246.53 483.53 159.94 479.95 180.83 499.38 180.83 488.07 246.53 509.45 246.53 520.77 180.83 539.45 180.83 543.08 159.64 483.58 159.64"/><path class="cls-4" d="M149.3,149.82c16.55-15.18,36.4-41.88,41.46-69.71C180.22,67.88,161,57.48,161,57.48c-20,.28-57.91,7.31-78.43,13.21-5.06,16.59-1.68,38-5.34,51.16.85.56,3.09,2.39,3.09,2.39,4.78-7.45,21.09-31.48,21.09-31.48,3.46-.45,22.63-.14,22.63-.14,5.95,3.47,12.37,14.19,14.47,24.31C135.38,130,127,138,118.09,138.72,118,141.81,121.75,149.12,149.3,149.82Z"/><path class="cls-4" d="M190.76,80.11c5.48,5.48,15.32,16.3,19.4,20.24,1.26-8.44,8.71-11,6-33.59a40.13,40.13,0,0,1,4.22-1c4.22,15.44,10.69,36.66-.46,61.25-18-4.08-38.13-18-54.11-33.7C169.11,84.75,190.76,80.11,190.76,80.11Z"/><path class="cls-5" d="M220.42,65.77a75.26,75.26,0,0,1-2.18-9.84,44.62,44.62,0,0,1-11.67-12.79c-3.44.85-7.62,6.33-7.62,6.54s-.45,7.1-.45,7.1l1.31.58,1.77-.3A41.84,41.84,0,0,1,207.49,61a3.65,3.65,0,0,0,3.93,1.13,9.83,9.83,0,0,1,3.09,0l1.69,4.64Z"/><path class="cls-5" d="M175.57,66.76l-9.72-23.62s5.62-12.65,5.62-13.07a16.81,16.81,0,0,0-2.88-3.72L163.46,26l-1-3.23S153.29,16,142.69,15c-9-.77-19.12,8-13.77,12.65a52.23,52.23,0,0,1,8.57,9.56,46.11,46.11,0,0,1,7.17,21.42C147.05,64.37,163.19,73.5,175.57,66.76Z"/><path class="cls-6" d="M170.1,29.51c6.18,1.12,15.6,10.26,11.1,20.52s-23,7.85-33.45-.7C138.85,42.06,126,27.54,126,27.54c0-3.09,4.25-5.49,4.25-5.49s-.19,2.72.8,3.28a11.55,11.55,0,0,0,3.47.73l1.18,3a27.76,27.76,0,0,0,5.91,3.37C145.59,34.09,163.77,32.46,170.1,29.51Z"/><path class="cls-7" d="M143.79,52.62s5.33,8.37,21.39,13.5c6.23,2,10-.35,10-.35l-2.6-6.31s6,4.74,7.09,5.82c3.79,3.9,4.7,10.26,4.7,10.61s-6.24-4.23-8-4.71-8.13.44-8.13.44S161.38,76.24,161,77s-11.19-3.45-20.28-17.89C141.78,57.41,143.79,52.62,143.79,52.62Z"/><path class="cls-8" d="M153.29,18c-4.59-3.05-19.22-5.15-26.52,10-1.08,1.48-18.38,5.68-19.64-8.36,3.09,4.08,8.64,4,13.07-2.11,1.5-2,5.15-9.32,20-7.87C152.34,10.88,153.29,18,153.29,18Z"/><path class="cls-4" d="M143.59,53.08c3.21,6.61,21.55,14.61,21.55,14.61-4.34,2.32-5.2,7.81-5.2,7.81-4.33-1.83-11.57-7-18.8-17.08C141.92,56.84,143.59,53.08,143.59,53.08Z"/><path class="cls-9" d="M141,40.4c1.91-.85-2.28-8.14-7-7.65s-4.08,4.34-1,5.94S139.07,41.25,141,40.4Z"/><path class="cls-1" d="M163.16,22.17c5.32,2.31,5.29,5,0,4.18-3.57-.58-7.27-1-8.54-4.64C156.6,22,163.16,22.17,163.16,22.17Z"/><path class="cls-1" d="M152.78,22.05c1.84,3.43,1.72,7.11-2.85,7.53s-8.38-1.59-9.64-4.8C142.76,23.46,148.66,22.39,152.78,22.05Z"/><path class="cls-10" d="M135.28,32.87a14.49,14.49,0,0,1,5.69-6.8l-.44-.72a15.31,15.31,0,0,0-6,7.22Z"/><path class="cls-8" d="M147.12,26.77a5.57,5.57,0,0,1,3.29-.59l.15-.83a6.32,6.32,0,0,0-3.84.68Z"/><path class="cls-8" d="M160.09,24.88a4.89,4.89,0,0,1,2.93,0l.28-.79a5.56,5.56,0,0,0-3.5,0Z"/><path class="cls-6" d="M149.58,20.16c-.5-1.54-3.38-2.53-3.38-2.53l-6.11,3.23,1.62,1.55S148.87,20.58,149.58,20.16Z"/><path class="cls-6" d="M159.47,20.7a39.49,39.49,0,0,0-5.62-.57s-1.53-2.19-1.93-2.56a20.37,20.37,0,0,1,6.67,1.25A7.84,7.84,0,0,1,159.47,20.7Z"/><path class="cls-11" d="M138,36.72c-2.26-.75-1-2.91-2.84-3s-4,1.48-2.9,2.53a7.52,7.52,0,0,0,5.37,2C138.94,38.16,139.41,37.19,138,36.72Z"/><path class="cls-12" d="M136.87,36c.91,1.11,1.83.73,2,1.23s-.09.95-1.15,1c-1.47.05-3.11-2.66-1.35-3.36A8.94,8.94,0,0,0,136.87,36Z"/><path class="cls-8" d="M171.22,22.34c1.41,2.11,2.48,6.12-7.59,7.24-9.46,1.05-20.38-2.46-20.38-2.46-1.4,8.89,17.43,16,23.29,5.6a8.72,8.72,0,0,0,9,.44C180.7,30.85,176.28,24.17,171.22,22.34Z"/><path class="cls-13" d="M162.8,30.12a8.54,8.54,0,0,0,4.37-1.05,4.07,4.07,0,0,0,2-2.64l.1-.51h-.52c-10.65,0-12.87-2.58-14.34-4.29l-.21-.26-.64.56.21.24c1.45,1.69,3.86,4.5,14.41,4.6a3.51,3.51,0,0,1-1.45,1.58c-1.85,1.11-4.77,1.23-7.84.33l-.24.81A14.83,14.83,0,0,0,162.8,30.12Z"/><path class="cls-10" d="M140.17,25.91c9.75-4.68,18.19-4,24.46-2.84l.23-1.25c-6.46-1.17-15.16-1.89-25.24,2.95Z"/><path class="cls-11" d="M201.58,57.06s0-.18.11-.49c0-.15.07-.34.13-.54s.11-.44.2-.69.17-.51.28-.79.11-.28.17-.43.12-.29.19-.44.28-.6.42-.91.31-.61.48-.91c.33-.62.7-1.2,1.05-1.76.18-.27.35-.54.52-.78s.34-.49.5-.7c.31-.42.59-.76.79-1l.33-.37-.12.06-.32.18c-.13.09-.3.19-.47.33a5.82,5.82,0,0,0-.57.48A11.51,11.51,0,0,0,204,49.67c-.2.27-.42.55-.61.85s-.38.62-.56.93a11.66,11.66,0,0,0-.86,2c-.06.16-.11.32-.16.48s-.07.32-.11.47a7.57,7.57,0,0,0-.15.87,5.14,5.14,0,0,0-.05.75,3.28,3.28,0,0,0,0,.57C201.56,56.88,201.58,57.06,201.58,57.06Z"/><path class="cls-11" d="M209.75,50.31c-.32.17-.63.35-.94.54s-.6.39-.9.59-.59.4-.88.62-.58.42-.86.64l-.07.06,0,.09c-.22.48-.42.95-.59,1.44-.09.24-.18.48-.26.73l-.22.74c-.07.25-.12.5-.18.75s-.1.51-.15.77-.08.51-.1.77,0,.52,0,.78q.16-.36.3-.72c.08-.24.19-.47.28-.71.18-.47.38-.94.56-1.41l1.14-2.81-.12.15c.28-.22.54-.47.8-.71s.53-.48.79-.73.51-.5.75-.77S209.52,50.59,209.75,50.31Z"/><path class="cls-11" d="M213.39,54c-.41.06-.81.15-1.21.24s-.79.19-1.18.31c-.79.21-1.56.47-2.32.74l-.21.07-.05.22q-.18.67-.33,1.35c-.09.45-.19.9-.27,1.35s-.15.91-.21,1.37-.11.92-.12,1.39c.2-.42.37-.85.54-1.28s.31-.87.45-1.31.28-.89.4-1.33.24-.89.35-1.33L209,56c.75-.29,1.51-.6,2.24-.94.38-.17.74-.35,1.11-.54S213,54.17,213.39,54Z"/><path class="cls-11" d="M212.76,62c-.07-.23-.16-.45-.25-.67s-.2-.43-.3-.64-.22-.42-.34-.62-.23-.4-.36-.6l-.15.6c.37-.17.74-.36,1.11-.55l.53-.31.53-.33-.37-.07.3.25c.11.08.2.17.31.24s.44.32.67.46a5.33,5.33,0,0,0-.38-.71,4,4,0,0,0-.22-.34,3.62,3.62,0,0,0-.22-.32l-.12-.17-.25.1-.58.22c-.19.08-.38.15-.57.24-.38.17-.75.36-1.11.56l-.42.23.27.36c.14.19.29.37.43.55s.31.36.46.54.31.34.49.51S212.57,61.84,212.76,62Z"/><polygon class="cls-11" points="205.44 59.42 201.07 59.42 199.81 57.36 201.61 56.86 205.44 59.42"/><path class="cls-5" d="M80.28,124.24a18.11,18.11,0,0,0-1.47,2.6c.07.21-.37,7.85-.49,10.8l-2.74,2.49-2.82-2.36-2,2,1.68,2.45s-.21,2.89-4.42-.7c-1.79-1.52-5.15-3.9-6.27-4.88s-1.47-5.33-1.47-5.33c1.34-1,15.26-7.08,15.26-7.08l1.61-2.39Z"/><path class="cls-11" d="M75.58,140.13s.45-5.22.4-5.06-5.68,3.37-5.68,3.37l-2.44-.21-1.26-1.37-1.53,0-1.21-1.63H62.75l-.69-1.85-1.55-.56,1.19,5.88,8.85,5.64,2.16-1.89-1.91-2.72,2.35-1.68Z"/><path class="cls-14" d="M192.85,213.68q2.1-3.68,4-7.2l1.87.32,1,13.61c-.17.32-.36.66-.57,1C192.75,220.09,191.85,215.87,192.85,213.68Z"/><path class="cls-15" d="M199.17,221.41a21.22,21.22,0,0,0,3.66.4c14.31.38,17.44-6,17.44-6l1,1.42c-2.17,7.4-13.66,13.54-27,13.2a11.63,11.63,0,0,1-2.09-2.78l-.78,3.06c-2.32.17-8.62.16-12.06-2.95.8-1.09,1.87-2.53,3-4.15C191.4,230,196.81,225.24,199.17,221.41Z"/><path class="cls-7" d="M192.85,213.68c-1,2.19-.1,6.41,6.32,7.73-2.36,3.83-7.77,8.58-16.85,2.16a53.23,53.23,0,0,0,5.54-9.42c-.23-.58-.93-3.83-.93-3.83l2.9-3s.19-.32.51-1l6.52.17Q195,210,192.85,213.68Z"/><path class="cls-15" d="M47.4,264.38c-5.07-.85-12.93-2.24-13.59-4.77-.42-1.6.15-3.75,1.24-6.06-1.71-2-3.91-4.49-5.27-6-.38.35-.78.71-1.24,1.08a12.58,12.58,0,0,0-5.88,3.51,55.56,55.56,0,0,0-1.07,6.61H24s-6.08,6.56-4.12,6.68c21.15,1.3,29.48,0,29.48,0Z"/><path class="cls-7" d="M38.49,237.59l-5.19,3.18-.55,3.2a30.86,30.86,0,0,1-4.21,4.67c-1.07,1.37-3.59,7.1-2.9,14.28,1.83-2.29,6.26-5.78,8.17-3.31-.46-3.57,3.11-12.3,12.59-21.45A70.94,70.94,0,0,0,38.49,237.59Z"/><path class="cls-16" d="M120,141c10.9-3.48,99.8-3.71,100.27,0,.44,3.49-3.24,28.15-23.38,65.45l-6.52-.17c1.67-3.6,8.8-22.12,7.63-51.69-.15-1.24-4.8-1.39-13.15.46S113.85,174,120,141Z"/><path class="cls-16" d="M38.49,237.59c7.43-7,26.86-32.52,30.34-36.23s12.93-5,22.21-11.26S111.84,157.74,120,141c0,0,26.38,4.8,33.19,8.82-43,44.4-103.31,84.43-112.32,94.42l-2.76-6.5Z"/><path class="cls-15" d="M188,154.44c-17.94,2.42-58.5,14.6-67.94-9.35,1.28,7.2,3.73,32.4,3.73,32.4s12.88-11.69,16.25-14.9C148.44,164.28,168.84,159.34,188,154.44Z"/><path class="cls-17" d="M166.47,68.43a8.23,8.23,0,0,0-4.5,4.35c1.63,1,5.77,1.42,5.77,1.42.68,3,2.55,5.11,5.39,5.11s5.34-3,5.25-5.11a12.3,12.3,0,0,0,1.34-2.64L179,68.05l-2.78-.81C174.53,68.63,173.69,68.66,166.47,68.43Z"/><path class="cls-17" d="M171.65,77.76c-1.17,6.48-8.6,30.47-22.07,51.82.5,2.32,13.19.42,13.72,0,8.1-14.18,15.07-42.76,13.14-54.08A22.78,22.78,0,0,1,171.65,77.76Z"/><path class="cls-18" d="M174.49,79.31c-2.17.87-3.09,4.59-4,7.45s-13.32,35.65-19,42.34c4.43.4,11.67-.75,11.67-.75C172.74,111.74,179.64,77.25,174.49,79.31Z"/><path class="cls-16" d="M141.14,58.42s-47.73,7.24-59.8,11.8c-2.29,5.46-2.14,16.62-2.6,25s-1.07,24.67-1.07,24.67l4.5,1.44,19.2-28.59,23.28-.42s11.53,12.53,13.82,24.59a34.51,34.51,0,0,1-5.65,10.66c-7.18,5.38-21.63,9-23.87,9.35,2.64,2.76,8,4.82,15.7,4.09s35.46-2.34,35.46-2.34c11.51-11.37,21.23-31.78,21.23-31.78,5.87,6.51,30.43,19.81,39.08,20.57,12.31-25.67,4.14-46.52,1.08-58.34a42.19,42.19,0,0,1-5,1c1.37,15.59-5.59,21.07-6.38,30.17-6.3-8.17-26.33-27.1-26.33-27.1.53,4.27-.6,37.11-25.34,54.23C160.63,96.31,154.19,80,141.14,58.42Z"/><path class="cls-15" d="M181.34,106.91c4.22-8.81,6.33-18.37,5.77-26.94.7,12.37-1.59,29.56,14,39.94A105.56,105.56,0,0,1,181.34,106.91Z"/><path class="cls-15" d="M210.16,100.35c-.14,4.5,1.26,12.09,4.78,14.48C211.42,113.84,208.61,108.92,210.16,100.35Z"/><path class="cls-15" d="M112.75,92.52c11.25.1,18.41-3.7,18.56-8.33a96.32,96.32,0,0,0,5.24,26.17c-6-13-11.9-17.33-11.9-17.33Z"/><path class="cls-18" d="M172.77,69.4c-2.79.3-3.38,4.59-2.46,6.65s5.23,2.46,6.45.51S178.61,68.77,172.77,69.4Z"/><path class="cls-15" d="M120,141l40.14-2.34-4.83-4.89-11.76,4.83L109,136.94S110.93,141.15,120,141Z"/><path class="cls-15" d="M157.72,130.54a1.3,1.3,0,1,1-1.3-1.35A1.33,1.33,0,0,1,157.72,130.54Z"/><path class="cls-15" d="M136.55,59.14c1.62,9.67,4.2,23.57,4.2,23.57l11.58,1.48L143.18,89s12.56,25.34,14.54,40c-4.58-13.43-9.8-27.95-16.28-40.17,2.08-1.07,8.14-4,8.14-4l-10.7-.66-3.49-25Z"/><path class="cls-15" d="M158.33,128.69c7-1.83,18-12.45,19.53-15.08C175.6,118.92,165.17,128.29,158.33,128.69Z"/></g></g></svg>